<?xml version="1.0" encoding="UTF-8"?>
<svg id="Capa_1" data-name="Capa 1" xmlns="http://www.w3.org/2000/svg" viewBox="0 0 48 48">
  <defs>
    <style>
      .cls-1 {
        fill: #fff;
      }
    </style>
  </defs>
  <circle class="cls-1" cx="24" cy="24" r="5.04"/>
  <path class="cls-1" d="m36.3,17.9c-.07-1.48-.31-2.28-.52-2.81-.27-.71-.6-1.21-1.13-1.74-.53-.53-1.03-.86-1.74-1.13-.53-.21-1.33-.45-2.81-.52-1.59-.07-2.07-.09-6.1-.09s-4.51.01-6.1.09c-1.48.07-2.28.31-2.81.52-.7.27-1.21.6-1.74,1.13-.53.53-.86,1.03-1.13,1.74-.21.53-.46,1.33-.52,2.81-.07,1.59-.09,2.07-.09,6.1s.01,4.51.09,6.1c.07,1.48.32,2.28.52,2.81.27.7.6,1.21,1.13,1.74.53.53,1.03.86,1.74,1.13.53.21,1.33.46,2.81.52,1.59.07,2.07.09,6.1.09s4.51-.01,6.1-.09c1.48-.07,2.28-.32,2.81-.52.71-.27,1.21-.6,1.74-1.13.53-.53.86-1.03,1.13-1.74.21-.53.45-1.33.52-2.81.07-1.59.09-2.07.09-6.1s-.01-4.51-.09-6.1Zm-12.3,13.86c-4.28,0-7.76-3.47-7.76-7.76s3.48-7.76,7.76-7.76,7.76,3.47,7.76,7.76-3.47,7.76-7.76,7.76Zm8.07-14.01c-1,0-1.81-.81-1.81-1.81s.81-1.81,1.81-1.81,1.81.81,1.81,1.81-.81,1.81-1.81,1.81Z"/>
  <path class="cls-1" d="m24,0C10.74,0,0,10.74,0,24s10.74,24,24,24,24-10.74,24-24S37.26,0,24,0Zm15.02,30.23c-.07,1.61-.33,2.71-.7,3.67-.39.99-.9,1.83-1.74,2.68-.84.84-1.69,1.35-2.68,1.74-.96.37-2.06.63-3.67.7-1.61.07-2.13.09-6.23.09s-4.62-.02-6.23-.09c-1.61-.07-2.71-.33-3.67-.7-.99-.39-1.83-.9-2.68-1.74-.84-.84-1.35-1.69-1.74-2.68-.37-.96-.63-2.06-.7-3.67-.07-1.61-.09-2.13-.09-6.23s.02-4.62.09-6.23c.07-1.61.33-2.71.7-3.67.39-.99.9-1.83,1.74-2.68.84-.84,1.69-1.35,2.68-1.74.96-.37,2.06-.63,3.67-.7,1.61-.07,2.13-.09,6.23-.09s4.62.02,6.23.09c1.61.07,2.71.33,3.67.7.99.39,1.83.9,2.68,1.74.84.84,1.35,1.69,1.74,2.68.37.96.63,2.06.7,3.67.07,1.61.09,2.13.09,6.23s-.02,4.62-.09,6.23Z"/>
</svg>