<?xml version="1.0" encoding="UTF-8"?>
<svg id="Capa_1" data-name="Capa 1" xmlns="http://www.w3.org/2000/svg" viewBox="0 0 48 48">
  <defs>
    <style>
      .cls-1 {
        fill: #fff;
      }
    </style>
  </defs>
  <path class="cls-1" d="m24,0C10.74,0,0,10.74,0,24s10.74,24,24,24,24-10.74,24-24S37.26,0,24,0Zm-7.5,36.68c0,.33-.08.43-.43.43-1.71-.02-3.41-.01-5.12,0-.27,0-.36-.07-.36-.35,0-6.08,0-12.17,0-18.25,0-.25.06-.34.33-.34,1.73.01,3.47.01,5.2,0,.33,0,.38.13.38.41,0,3.03,0,6.06,0,9.09s0,6.01,0,9.02Zm-2.95-21.12c-1.86,0-3.4-1.54-3.41-3.4,0-1.88,1.54-3.42,3.41-3.42,1.87,0,3.4,1.53,3.41,3.39,0,1.89-1.53,3.42-3.41,3.42Zm25.03,21.16c0,.31-.09.39-.39.39-1.71-.01-3.41-.01-5.12,0-.3,0-.37-.09-.36-.38,0-3.15.01-6.31,0-9.46,0-.79-.05-1.58-.27-2.35-.41-1.42-1.42-2.14-2.9-2.06-2.03.11-3.08,1.11-3.34,3.17-.06.49-.09.98-.09,1.48,0,3.07,0,6.14,0,9.21,0,.31-.07.39-.39.39-1.72-.02-3.44-.01-5.16,0-.27,0-.36-.07-.35-.35,0-6.07,0-12.15,0-18.22,0-.3.1-.37.38-.37,1.63.01,3.27.01,4.9,0,.3,0,.38.1.37.38-.02.73,0,1.45,0,2.18.39-.44.72-.89,1.13-1.28,1.24-1.17,2.72-1.76,4.43-1.75.95,0,1.88.08,2.79.34,2.08.6,3.29,2.03,3.87,4.07.43,1.53.51,3.09.52,4.66,0,3.31,0,6.63,0,9.94Z"/>
</svg>