<svg width="387" height="279" viewBox="0 0 387 279" fill="none" xmlns="http://www.w3.org/2000/svg">
<path d="M72.0076 79.508C73.1222 79.244 74.3249 79.068 75.6156 78.98C76.9062 78.892 78.1822 78.848 79.4436 78.848C80.7929 78.848 82.1569 78.98 83.5356 79.244C84.9436 79.508 86.2196 79.992 87.3636 80.696C88.5076 81.4 89.4316 82.368 90.1356 83.6C90.8689 84.832 91.2356 86.4013 91.2356 88.308C91.2356 90.1853 90.8982 91.7693 90.2236 93.06C89.5489 94.3507 88.6542 95.4067 87.5396 96.228C86.4249 97.02 85.1489 97.592 83.7116 97.944C82.2742 98.296 80.7929 98.472 79.2676 98.472C79.1209 98.472 78.8716 98.472 78.5196 98.472C78.1969 98.472 77.8449 98.472 77.4636 98.472C77.1116 98.4427 76.7596 98.4133 76.4076 98.384C76.0556 98.3547 75.8062 98.3253 75.6596 98.296V110H72.0076V79.508ZM79.5316 82.016C78.7689 82.016 78.0356 82.0307 77.3316 82.06C76.6276 82.0893 76.0702 82.1627 75.6596 82.28V95.04C75.8062 95.0987 76.0409 95.1427 76.3636 95.172C76.6862 95.172 77.0236 95.1867 77.3756 95.216C77.7276 95.216 78.0649 95.216 78.3876 95.216C78.7102 95.216 78.9449 95.216 79.0916 95.216C80.0889 95.216 81.0716 95.128 82.0396 94.952C83.0369 94.7467 83.9316 94.3947 84.7236 93.896C85.5156 93.3973 86.1462 92.6933 86.6156 91.784C87.1142 90.8747 87.3636 89.716 87.3636 88.308C87.3636 87.1053 87.1289 86.108 86.6596 85.316C86.2196 84.4947 85.6182 83.8493 84.8556 83.38C84.1222 82.8813 83.2862 82.5293 82.3476 82.324C81.4089 82.1187 80.4702 82.016 79.5316 82.016ZM105.071 91.388C104.191 91.0947 103.355 90.948 102.563 90.948C101.301 90.948 100.304 91.3 99.5708 92.004C98.8375 92.6787 98.3828 93.544 98.2068 94.6V110H94.6868V88H97.1508L97.8108 90.684H97.9868C98.5442 89.6867 99.2042 88.924 99.9668 88.396C100.759 87.8387 101.756 87.56 102.959 87.56C103.809 87.56 104.763 87.7067 105.819 88L105.071 91.388ZM108.408 99C108.408 95.2747 109.229 92.4293 110.872 90.464C112.544 88.4693 114.935 87.472 118.044 87.472C119.687 87.472 121.109 87.7507 122.312 88.308C123.544 88.836 124.556 89.6133 125.348 90.64C126.14 91.6373 126.727 92.8547 127.108 94.292C127.489 95.7 127.68 97.2693 127.68 99C127.68 102.725 126.844 105.585 125.172 107.58C123.529 109.545 121.153 110.528 118.044 110.528C116.401 110.528 114.964 110.264 113.732 109.736C112.529 109.179 111.532 108.401 110.74 107.404C109.948 106.377 109.361 105.16 108.98 103.752C108.599 102.315 108.408 100.731 108.408 99ZM112.06 99C112.06 100.115 112.163 101.185 112.368 102.212C112.603 103.239 112.955 104.133 113.424 104.896C113.893 105.659 114.509 106.275 115.272 106.744C116.035 107.213 116.959 107.448 118.044 107.448C122.033 107.477 124.028 104.661 124.028 99C124.028 97.856 123.911 96.7707 123.676 95.744C123.471 94.7173 123.133 93.8227 122.664 93.06C122.195 92.2973 121.579 91.696 120.816 91.256C120.053 90.7867 119.129 90.552 118.044 90.552C114.055 90.5227 112.06 93.3387 112.06 99ZM130.294 88H133.726V86.768C133.726 85.4187 133.829 84.2453 134.034 83.248C134.269 82.2507 134.636 81.444 135.134 80.828C135.633 80.1827 136.278 79.7133 137.07 79.42C137.862 79.0973 138.845 78.936 140.018 78.936C140.957 78.936 141.778 78.9947 142.482 79.112C143.216 79.2293 143.978 79.4493 144.77 79.772L143.978 82.72C143.304 82.4267 142.658 82.236 142.042 82.148C141.456 82.06 140.898 82.016 140.37 82.016C139.608 82.016 139.006 82.1333 138.566 82.368C138.156 82.6027 137.848 82.9547 137.642 83.424C137.466 83.864 137.349 84.4213 137.29 85.096C137.261 85.7413 137.246 86.504 137.246 87.384V88H143.098V91.08H137.246V110H133.726V91.08H130.294V88ZM162.352 108.24C161.472 108.944 160.358 109.501 159.008 109.912C157.688 110.323 156.28 110.528 154.784 110.528C153.112 110.528 151.66 110.264 150.428 109.736C149.196 109.179 148.184 108.401 147.392 107.404C146.6 106.377 146.014 105.16 145.632 103.752C145.251 102.344 145.06 100.76 145.06 99C145.06 95.2453 145.896 92.3853 147.568 90.42C149.24 88.4547 151.631 87.472 154.74 87.472C155.738 87.472 156.735 87.5893 157.732 87.824C158.73 88.0293 159.624 88.44 160.416 89.056C161.208 89.672 161.854 90.552 162.352 91.696C162.851 92.8107 163.1 94.292 163.1 96.14C163.1 97.108 163.012 98.1787 162.836 99.352H148.712C148.712 100.643 148.844 101.787 149.108 102.784C149.372 103.781 149.783 104.632 150.34 105.336C150.898 106.011 151.616 106.539 152.496 106.92C153.406 107.272 154.506 107.448 155.796 107.448C156.794 107.448 157.791 107.272 158.788 106.92C159.786 106.568 160.534 106.157 161.032 105.688L162.352 108.24ZM154.784 90.552C153.054 90.552 151.66 91.0067 150.604 91.916C149.578 92.8253 148.962 94.38 148.756 96.58H159.668C159.668 94.3507 159.243 92.796 158.392 91.916C157.542 91.0067 156.339 90.552 154.784 90.552ZM178.316 104.016C178.316 103.136 178.052 102.447 177.524 101.948C176.996 101.449 176.336 101.039 175.544 100.716C174.781 100.364 173.931 100.041 172.992 99.748C172.083 99.4253 171.232 99.0293 170.44 98.56C169.677 98.0613 169.032 97.4307 168.504 96.668C167.976 95.9053 167.712 94.8787 167.712 93.588C167.712 91.476 168.313 89.936 169.516 88.968C170.719 87.9707 172.391 87.472 174.532 87.472C176.116 87.472 177.436 87.6187 178.492 87.912C179.577 88.176 180.516 88.4987 181.308 88.88L180.472 91.784C179.797 91.4613 178.976 91.1827 178.008 90.948C177.069 90.684 176.057 90.552 174.972 90.552C173.681 90.552 172.728 90.772 172.112 91.212C171.525 91.652 171.232 92.4147 171.232 93.5C171.232 94.2627 171.496 94.864 172.024 95.304C172.552 95.7147 173.197 96.096 173.96 96.448C174.752 96.7707 175.603 97.0933 176.512 97.416C177.451 97.7387 178.301 98.164 179.064 98.692C179.856 99.22 180.516 99.8947 181.044 100.716C181.572 101.508 181.836 102.564 181.836 103.884C181.836 104.823 181.675 105.703 181.352 106.524C181.059 107.345 180.589 108.049 179.944 108.636C179.299 109.223 178.492 109.677 177.524 110C176.585 110.352 175.471 110.528 174.18 110.528C172.508 110.528 171.085 110.367 169.912 110.044C168.739 109.721 167.756 109.34 166.964 108.9L168.02 105.908C168.695 106.289 169.575 106.641 170.66 106.964C171.745 107.287 172.845 107.448 173.96 107.448C175.221 107.448 176.263 107.199 177.084 106.7C177.905 106.201 178.316 105.307 178.316 104.016ZM187.904 88H191.424V110H187.904V88ZM187.156 81.312C187.156 80.6373 187.376 80.0653 187.816 79.596C188.285 79.0973 188.872 78.848 189.576 78.848C190.28 78.848 190.881 79.0973 191.38 79.596C191.878 80.0653 192.128 80.6373 192.128 81.312C192.128 81.9867 191.878 82.544 191.38 82.984C190.881 83.424 190.28 83.644 189.576 83.644C188.872 83.644 188.285 83.424 187.816 82.984C187.376 82.544 187.156 81.9867 187.156 81.312ZM197.697 99C197.697 95.2747 198.518 92.4293 200.161 90.464C201.833 88.4693 204.224 87.472 207.333 87.472C208.976 87.472 210.398 87.7507 211.601 88.308C212.833 88.836 213.845 89.6133 214.637 90.64C215.429 91.6373 216.016 92.8547 216.397 94.292C216.778 95.7 216.969 97.2693 216.969 99C216.969 102.725 216.133 105.585 214.461 107.58C212.818 109.545 210.442 110.528 207.333 110.528C205.69 110.528 204.253 110.264 203.021 109.736C201.818 109.179 200.821 108.401 200.029 107.404C199.237 106.377 198.65 105.16 198.269 103.752C197.888 102.315 197.697 100.731 197.697 99ZM201.349 99C201.349 100.115 201.452 101.185 201.657 102.212C201.892 103.239 202.244 104.133 202.713 104.896C203.182 105.659 203.798 106.275 204.561 106.744C205.324 107.213 206.248 107.448 207.333 107.448C211.322 107.477 213.317 104.661 213.317 99C213.317 97.856 213.2 96.7707 212.965 95.744C212.76 94.7173 212.422 93.8227 211.953 93.06C211.484 92.2973 210.868 91.696 210.105 91.256C209.342 90.7867 208.418 90.552 207.333 90.552C203.344 90.5227 201.349 93.3387 201.349 99ZM236.643 110V97.46C236.643 95.172 236.306 93.456 235.631 92.312C234.986 91.1387 233.783 90.552 232.023 90.552C230.468 90.552 229.178 90.9773 228.151 91.828C227.154 92.6493 226.45 93.6907 226.039 94.952V110H222.519V88H224.983L225.643 90.684H225.819C226.523 89.7453 227.462 88.9827 228.635 88.396C229.838 87.78 231.26 87.472 232.903 87.472C234.106 87.472 235.162 87.6187 236.071 87.912C236.98 88.176 237.728 88.66 238.315 89.364C238.931 90.068 239.386 91.0213 239.679 92.224C240.002 93.3973 240.163 94.8933 240.163 96.712V110H236.643ZM246.229 89.628C247.344 88.9533 248.635 88.4547 250.101 88.132C251.597 87.8093 253.152 87.648 254.765 87.648C256.291 87.648 257.508 87.8533 258.417 88.264C259.356 88.6747 260.06 89.2173 260.529 89.892C261.028 90.5373 261.351 91.256 261.497 92.048C261.673 92.84 261.761 93.632 261.761 94.424C261.761 96.184 261.717 97.9 261.629 99.572C261.541 101.244 261.497 102.828 261.497 104.324C261.497 105.409 261.541 106.436 261.629 107.404C261.717 108.372 261.879 109.267 262.113 110.088H259.517L258.593 107.008H258.373C258.109 107.419 257.772 107.829 257.361 108.24C256.98 108.621 256.511 108.973 255.953 109.296C255.396 109.589 254.751 109.839 254.017 110.044C253.284 110.249 252.448 110.352 251.509 110.352C250.571 110.352 249.691 110.205 248.869 109.912C248.077 109.619 247.388 109.208 246.801 108.68C246.215 108.123 245.745 107.463 245.393 106.7C245.071 105.937 244.909 105.072 244.909 104.104C244.909 102.813 245.173 101.743 245.701 100.892C246.229 100.012 246.963 99.3227 247.901 98.824C248.869 98.296 250.013 97.9293 251.333 97.724C252.683 97.4893 254.164 97.372 255.777 97.372C256.188 97.372 256.584 97.372 256.965 97.372C257.376 97.372 257.787 97.4013 258.197 97.46C258.285 96.58 258.329 95.788 258.329 95.084C258.329 93.4707 258.007 92.3413 257.361 91.696C256.716 91.0507 255.543 90.728 253.841 90.728C253.343 90.728 252.8 90.772 252.213 90.86C251.656 90.9187 251.069 91.0213 250.453 91.168C249.867 91.2853 249.295 91.4467 248.737 91.652C248.209 91.828 247.74 92.0333 247.329 92.268L246.229 89.628ZM252.477 107.272C253.299 107.272 254.032 107.169 254.677 106.964C255.323 106.729 255.88 106.451 256.349 106.128C256.819 105.776 257.2 105.395 257.493 104.984C257.816 104.573 258.051 104.177 258.197 103.796V100.144C257.787 100.115 257.361 100.1 256.921 100.1C256.511 100.071 256.1 100.056 255.689 100.056C254.78 100.056 253.885 100.115 253.005 100.232C252.155 100.32 251.392 100.511 250.717 100.804C250.072 101.068 249.544 101.449 249.133 101.948C248.752 102.417 248.561 103.019 248.561 103.752C248.561 104.779 248.928 105.629 249.661 106.304C250.395 106.949 251.333 107.272 252.477 107.272ZM272.325 104.588C272.325 105.615 272.501 106.348 272.853 106.788C273.205 107.228 273.704 107.448 274.349 107.448C274.731 107.448 275.141 107.419 275.581 107.36C276.021 107.301 276.52 107.169 277.077 106.964L277.473 109.736C277.004 109.971 276.344 110.161 275.493 110.308C274.672 110.455 273.953 110.528 273.337 110.528C272.017 110.528 270.932 110.161 270.081 109.428C269.231 108.665 268.805 107.389 268.805 105.6V79.2H272.325V104.588ZM297.317 108.24C296.437 108.944 295.322 109.501 293.973 109.912C292.653 110.323 291.245 110.528 289.749 110.528C288.077 110.528 286.625 110.264 285.393 109.736C284.161 109.179 283.149 108.401 282.357 107.404C281.565 106.377 280.978 105.16 280.597 103.752C280.216 102.344 280.025 100.76 280.025 99C280.025 95.2453 280.861 92.3853 282.533 90.42C284.205 88.4547 286.596 87.472 289.705 87.472C290.702 87.472 291.7 87.5893 292.697 87.824C293.694 88.0293 294.589 88.44 295.381 89.056C296.173 89.672 296.818 90.552 297.317 91.696C297.816 92.8107 298.065 94.292 298.065 96.14C298.065 97.108 297.977 98.1787 297.801 99.352H283.677C283.677 100.643 283.809 101.787 284.073 102.784C284.337 103.781 284.748 104.632 285.305 105.336C285.862 106.011 286.581 106.539 287.461 106.92C288.37 107.272 289.47 107.448 290.761 107.448C291.758 107.448 292.756 107.272 293.753 106.92C294.75 106.568 295.498 106.157 295.997 105.688L297.317 108.24ZM289.749 90.552C288.018 90.552 286.625 91.0067 285.569 91.916C284.542 92.8253 283.926 94.38 283.721 96.58H294.633C294.633 94.3507 294.208 92.796 293.357 91.916C292.506 91.0067 291.304 90.552 289.749 90.552ZM313.281 104.016C313.281 103.136 313.017 102.447 312.489 101.948C311.961 101.449 311.301 101.039 310.509 100.716C309.746 100.364 308.896 100.041 307.957 99.748C307.048 99.4253 306.197 99.0293 305.405 98.56C304.642 98.0613 303.997 97.4307 303.469 96.668C302.941 95.9053 302.677 94.8787 302.677 93.588C302.677 91.476 303.278 89.936 304.481 88.968C305.684 87.9707 307.356 87.472 309.497 87.472C311.081 87.472 312.401 87.6187 313.457 87.912C314.542 88.176 315.481 88.4987 316.273 88.88L315.437 91.784C314.762 91.4613 313.941 91.1827 312.973 90.948C312.034 90.684 311.022 90.552 309.937 90.552C308.646 90.552 307.693 90.772 307.077 91.212C306.49 91.652 306.197 92.4147 306.197 93.5C306.197 94.2627 306.461 94.864 306.989 95.304C307.517 95.7147 308.162 96.096 308.925 96.448C309.717 96.7707 310.568 97.0933 311.477 97.416C312.416 97.7387 313.266 98.164 314.029 98.692C314.821 99.22 315.481 99.8947 316.009 100.716C316.537 101.508 316.801 102.564 316.801 103.884C316.801 104.823 316.64 105.703 316.317 106.524C316.024 107.345 315.554 108.049 314.909 108.636C314.264 109.223 313.457 109.677 312.489 110C311.55 110.352 310.436 110.528 309.145 110.528C307.473 110.528 306.05 110.367 304.877 110.044C303.704 109.721 302.721 109.34 301.929 108.9L302.985 105.908C303.66 106.289 304.54 106.641 305.625 106.964C306.71 107.287 307.81 107.448 308.925 107.448C310.186 107.448 311.228 107.199 312.049 106.7C312.87 106.201 313.281 105.307 313.281 104.016ZM45.8278 145H49.2598V140.644L52.7798 139.632V145H58.7638V148.08H52.7798V160.268C52.7798 161.793 52.9704 162.879 53.3518 163.524C53.7331 164.14 54.3784 164.448 55.2878 164.448C56.0504 164.448 56.6958 164.375 57.2238 164.228C57.7518 164.052 58.3384 163.832 58.9838 163.568L59.7758 166.252C58.9838 166.633 58.1184 166.941 57.1798 167.176C56.2411 167.411 55.2291 167.528 54.1438 167.528C52.3544 167.528 51.0931 167.029 50.3598 166.032C49.6264 165.005 49.2598 163.304 49.2598 160.928V148.08H45.8278V145ZM74.0259 148.388C73.1459 148.095 72.3099 147.948 71.5179 147.948C70.2566 147.948 69.2592 148.3 68.5259 149.004C67.7926 149.679 67.3379 150.544 67.1619 151.6V167H63.6419V145H66.1059L66.7659 147.684H66.9419C67.4992 146.687 68.1592 145.924 68.9219 145.396C69.7139 144.839 70.7112 144.56 71.9139 144.56C72.7646 144.56 73.7179 144.707 74.7739 145L74.0259 148.388ZM78.243 146.628C79.3577 145.953 80.6484 145.455 82.115 145.132C83.611 144.809 85.1657 144.648 86.779 144.648C88.3044 144.648 89.5217 144.853 90.431 145.264C91.3697 145.675 92.0737 146.217 92.543 146.892C93.0417 147.537 93.3644 148.256 93.511 149.048C93.687 149.84 93.775 150.632 93.775 151.424C93.775 153.184 93.731 154.9 93.643 156.572C93.555 158.244 93.511 159.828 93.511 161.324C93.511 162.409 93.555 163.436 93.643 164.404C93.731 165.372 93.8924 166.267 94.127 167.088H91.531L90.607 164.008H90.387C90.123 164.419 89.7857 164.829 89.375 165.24C88.9937 165.621 88.5244 165.973 87.967 166.296C87.4097 166.589 86.7644 166.839 86.031 167.044C85.2977 167.249 84.4617 167.352 83.523 167.352C82.5844 167.352 81.7044 167.205 80.883 166.912C80.091 166.619 79.4017 166.208 78.815 165.68C78.2284 165.123 77.759 164.463 77.407 163.7C77.0844 162.937 76.923 162.072 76.923 161.104C76.923 159.813 77.187 158.743 77.715 157.892C78.243 157.012 78.9764 156.323 79.915 155.824C80.883 155.296 82.027 154.929 83.347 154.724C84.6964 154.489 86.1777 154.372 87.791 154.372C88.2017 154.372 88.5977 154.372 88.979 154.372C89.3897 154.372 89.8004 154.401 90.211 154.46C90.299 153.58 90.343 152.788 90.343 152.084C90.343 150.471 90.0204 149.341 89.375 148.696C88.7297 148.051 87.5564 147.728 85.855 147.728C85.3564 147.728 84.8137 147.772 84.227 147.86C83.6697 147.919 83.083 148.021 82.467 148.168C81.8804 148.285 81.3084 148.447 80.751 148.652C80.223 148.828 79.7537 149.033 79.343 149.268L78.243 146.628ZM84.491 164.272C85.3124 164.272 86.0457 164.169 86.691 163.964C87.3364 163.729 87.8937 163.451 88.363 163.128C88.8324 162.776 89.2137 162.395 89.507 161.984C89.8297 161.573 90.0644 161.177 90.211 160.796V157.144C89.8004 157.115 89.375 157.1 88.935 157.1C88.5244 157.071 88.1137 157.056 87.703 157.056C86.7937 157.056 85.899 157.115 85.019 157.232C84.1684 157.32 83.4057 157.511 82.731 157.804C82.0857 158.068 81.5577 158.449 81.147 158.948C80.7657 159.417 80.575 160.019 80.575 160.752C80.575 161.779 80.9417 162.629 81.675 163.304C82.4084 163.949 83.347 164.272 84.491 164.272ZM100.423 136.2H103.943V147.156H104.119C104.794 146.305 105.644 145.645 106.671 145.176C107.727 144.707 108.871 144.472 110.103 144.472C112.948 144.472 115.075 145.381 116.483 147.2C117.92 149.019 118.639 151.835 118.639 155.648C118.639 159.491 117.7 162.409 115.823 164.404C113.946 166.399 111.306 167.396 107.903 167.396C106.26 167.396 104.764 167.22 103.415 166.868C102.095 166.516 101.098 166.135 100.423 165.724V136.2ZM109.487 147.552C108.02 147.552 106.832 147.963 105.923 148.784C105.014 149.605 104.354 150.764 103.943 152.26V163.348C104.5 163.671 105.175 163.92 105.967 164.096C106.759 164.243 107.58 164.316 108.431 164.316C110.426 164.316 112.01 163.612 113.183 162.204C114.386 160.796 114.987 158.596 114.987 155.604C114.987 154.46 114.884 153.389 114.679 152.392C114.474 151.395 114.151 150.544 113.711 149.84C113.271 149.136 112.699 148.579 111.995 148.168C111.32 147.757 110.484 147.552 109.487 147.552ZM123.833 146.628C124.948 145.953 126.238 145.455 127.705 145.132C129.201 144.809 130.756 144.648 132.369 144.648C133.894 144.648 135.112 144.853 136.021 145.264C136.96 145.675 137.664 146.217 138.133 146.892C138.632 147.537 138.954 148.256 139.101 149.048C139.277 149.84 139.365 150.632 139.365 151.424C139.365 153.184 139.321 154.9 139.233 156.572C139.145 158.244 139.101 159.828 139.101 161.324C139.101 162.409 139.145 163.436 139.233 164.404C139.321 165.372 139.482 166.267 139.717 167.088H137.121L136.197 164.008H135.977C135.713 164.419 135.376 164.829 134.965 165.24C134.584 165.621 134.114 165.973 133.557 166.296C133 166.589 132.354 166.839 131.621 167.044C130.888 167.249 130.052 167.352 129.113 167.352C128.174 167.352 127.294 167.205 126.473 166.912C125.681 166.619 124.992 166.208 124.405 165.68C123.818 165.123 123.349 164.463 122.997 163.7C122.674 162.937 122.513 162.072 122.513 161.104C122.513 159.813 122.777 158.743 123.305 157.892C123.833 157.012 124.566 156.323 125.505 155.824C126.473 155.296 127.617 154.929 128.937 154.724C130.286 154.489 131.768 154.372 133.381 154.372C133.792 154.372 134.188 154.372 134.569 154.372C134.98 154.372 135.39 154.401 135.801 154.46C135.889 153.58 135.933 152.788 135.933 152.084C135.933 150.471 135.61 149.341 134.965 148.696C134.32 148.051 133.146 147.728 131.445 147.728C130.946 147.728 130.404 147.772 129.817 147.86C129.26 147.919 128.673 148.021 128.057 148.168C127.47 148.285 126.898 148.447 126.341 148.652C125.813 148.828 125.344 149.033 124.933 149.268L123.833 146.628ZM130.081 164.272C130.902 164.272 131.636 164.169 132.281 163.964C132.926 163.729 133.484 163.451 133.953 163.128C134.422 162.776 134.804 162.395 135.097 161.984C135.42 161.573 135.654 161.177 135.801 160.796V157.144C135.39 157.115 134.965 157.1 134.525 157.1C134.114 157.071 133.704 157.056 133.293 157.056C132.384 157.056 131.489 157.115 130.609 157.232C129.758 157.32 128.996 157.511 128.321 157.804C127.676 158.068 127.148 158.449 126.737 158.948C126.356 159.417 126.165 160.019 126.165 160.752C126.165 161.779 126.532 162.629 127.265 163.304C127.998 163.949 128.937 164.272 130.081 164.272ZM146.717 145H150.237V168.188C150.237 170.916 149.768 172.955 148.829 174.304C147.89 175.653 146.394 176.328 144.341 176.328C144.106 176.328 143.886 176.313 143.681 176.284C143.476 176.284 143.256 176.269 143.021 176.24V173.248C143.842 173.248 144.488 173.116 144.957 172.852C145.456 172.617 145.837 172.236 146.101 171.708C146.365 171.18 146.526 170.505 146.585 169.684C146.673 168.892 146.717 167.953 146.717 166.868V145ZM145.969 138.312C145.969 137.637 146.189 137.065 146.629 136.596C147.098 136.097 147.685 135.848 148.389 135.848C149.093 135.848 149.694 136.097 150.193 136.596C150.692 137.065 150.941 137.637 150.941 138.312C150.941 138.987 150.692 139.544 150.193 139.984C149.694 140.424 149.093 140.644 148.389 140.644C147.685 140.644 147.098 140.424 146.629 139.984C146.189 139.544 145.969 138.987 145.969 138.312ZM157.391 146.628C158.506 145.953 159.797 145.455 161.263 145.132C162.759 144.809 164.314 144.648 165.927 144.648C167.453 144.648 168.67 144.853 169.579 145.264C170.518 145.675 171.222 146.217 171.691 146.892C172.19 147.537 172.513 148.256 172.659 149.048C172.835 149.84 172.923 150.632 172.923 151.424C172.923 153.184 172.879 154.9 172.791 156.572C172.703 158.244 172.659 159.828 172.659 161.324C172.659 162.409 172.703 163.436 172.791 164.404C172.879 165.372 173.041 166.267 173.275 167.088H170.679L169.755 164.008H169.535C169.271 164.419 168.934 164.829 168.523 165.24C168.142 165.621 167.673 165.973 167.115 166.296C166.558 166.589 165.913 166.839 165.179 167.044C164.446 167.249 163.61 167.352 162.671 167.352C161.733 167.352 160.853 167.205 160.031 166.912C159.239 166.619 158.55 166.208 157.963 165.68C157.377 165.123 156.907 164.463 156.555 163.7C156.233 162.937 156.071 162.072 156.071 161.104C156.071 159.813 156.335 158.743 156.863 157.892C157.391 157.012 158.125 156.323 159.063 155.824C160.031 155.296 161.175 154.929 162.495 154.724C163.845 154.489 165.326 154.372 166.939 154.372C167.35 154.372 167.746 154.372 168.127 154.372C168.538 154.372 168.949 154.401 169.359 154.46C169.447 153.58 169.491 152.788 169.491 152.084C169.491 150.471 169.169 149.341 168.523 148.696C167.878 148.051 166.705 147.728 165.003 147.728C164.505 147.728 163.962 147.772 163.375 147.86C162.818 147.919 162.231 148.021 161.615 148.168C161.029 148.285 160.457 148.447 159.899 148.652C159.371 148.828 158.902 149.033 158.491 149.268L157.391 146.628ZM163.639 164.272C164.461 164.272 165.194 164.169 165.839 163.964C166.485 163.729 167.042 163.451 167.511 163.128C167.981 162.776 168.362 162.395 168.655 161.984C168.978 161.573 169.213 161.177 169.359 160.796V157.144C168.949 157.115 168.523 157.1 168.083 157.1C167.673 157.071 167.262 157.056 166.851 157.056C165.942 157.056 165.047 157.115 164.167 157.232C163.317 157.32 162.554 157.511 161.879 157.804C161.234 158.068 160.706 158.449 160.295 158.948C159.914 159.417 159.723 160.019 159.723 160.752C159.723 161.779 160.09 162.629 160.823 163.304C161.557 163.949 162.495 164.272 163.639 164.272ZM193.696 167V154.46C193.696 152.172 193.358 150.456 192.684 149.312C192.038 148.139 190.836 147.552 189.076 147.552C187.521 147.552 186.23 147.977 185.204 148.828C184.206 149.649 183.502 150.691 183.092 151.952V167H179.572V145H182.036L182.696 147.684H182.872C183.576 146.745 184.514 145.983 185.688 145.396C186.89 144.78 188.313 144.472 189.956 144.472C191.158 144.472 192.214 144.619 193.124 144.912C194.033 145.176 194.781 145.66 195.368 146.364C195.984 147.068 196.438 148.021 196.732 149.224C197.054 150.397 197.216 151.893 197.216 153.712V167H193.696ZM220.53 159.432C220.53 160.928 220.545 162.292 220.574 163.524C220.603 164.727 220.735 165.915 220.97 167.088H218.594L217.714 163.964H217.538C216.951 164.991 216.101 165.841 214.986 166.516C213.871 167.191 212.566 167.528 211.07 167.528C208.137 167.528 205.951 166.604 204.514 164.756C203.106 162.908 202.402 160.019 202.402 156.088C202.402 152.333 203.282 149.488 205.042 147.552C206.831 145.587 209.281 144.604 212.39 144.604C213.475 144.604 214.326 144.663 214.942 144.78C215.587 144.897 216.277 145.088 217.01 145.352V136.2H220.53V159.432ZM211.642 164.448C213.138 164.448 214.326 164.067 215.206 163.304C216.086 162.512 216.687 161.324 217.01 159.74V148.828C216.482 148.417 215.881 148.124 215.206 147.948C214.531 147.772 213.637 147.684 212.522 147.684C210.498 147.684 208.914 148.359 207.77 149.708C206.626 151.028 206.054 153.155 206.054 156.088C206.054 157.291 206.142 158.405 206.318 159.432C206.523 160.459 206.846 161.339 207.286 162.072C207.726 162.805 208.298 163.392 209.002 163.832C209.735 164.243 210.615 164.448 211.642 164.448ZM226.078 156C226.078 152.275 226.899 149.429 228.542 147.464C230.214 145.469 232.605 144.472 235.714 144.472C237.357 144.472 238.779 144.751 239.982 145.308C241.214 145.836 242.226 146.613 243.018 147.64C243.81 148.637 244.397 149.855 244.778 151.292C245.159 152.7 245.35 154.269 245.35 156C245.35 159.725 244.514 162.585 242.842 164.58C241.199 166.545 238.823 167.528 235.714 167.528C234.071 167.528 232.634 167.264 231.402 166.736C230.199 166.179 229.202 165.401 228.41 164.404C227.618 163.377 227.031 162.16 226.65 160.752C226.269 159.315 226.078 157.731 226.078 156ZM229.73 156C229.73 157.115 229.833 158.185 230.038 159.212C230.273 160.239 230.625 161.133 231.094 161.896C231.563 162.659 232.179 163.275 232.942 163.744C233.705 164.213 234.629 164.448 235.714 164.448C239.703 164.477 241.698 161.661 241.698 156C241.698 154.856 241.581 153.771 241.346 152.744C241.141 151.717 240.803 150.823 240.334 150.06C239.865 149.297 239.249 148.696 238.486 148.256C237.723 147.787 236.799 147.552 235.714 147.552C231.725 147.523 229.73 150.339 229.73 156ZM262.63 145H265.05L265.71 147.64H265.886C266.561 146.613 267.426 145.836 268.482 145.308C269.568 144.751 270.8 144.472 272.178 144.472C275.112 144.472 277.297 145.337 278.734 147.068C280.172 148.799 280.89 151.629 280.89 155.56C280.89 157.408 280.641 159.08 280.142 160.576C279.673 162.043 278.998 163.289 278.118 164.316C277.238 165.343 276.168 166.135 274.906 166.692C273.674 167.249 272.296 167.528 270.77 167.528C269.685 167.528 268.82 167.455 268.174 167.308C267.558 167.191 266.884 166.971 266.15 166.648V175.8H262.63V145ZM271.518 147.552C270.022 147.552 268.834 147.948 267.954 148.74C267.104 149.503 266.502 150.676 266.15 152.26V163.172C266.678 163.583 267.28 163.905 267.954 164.14C268.629 164.345 269.524 164.448 270.638 164.448C272.662 164.448 274.261 163.7 275.434 162.204C276.637 160.679 277.238 158.449 277.238 155.516C277.238 154.313 277.136 153.228 276.93 152.26C276.725 151.263 276.388 150.427 275.918 149.752C275.478 149.048 274.892 148.505 274.158 148.124C273.454 147.743 272.574 147.552 271.518 147.552ZM286.083 146.628C287.198 145.953 288.488 145.455 289.955 145.132C291.451 144.809 293.006 144.648 294.619 144.648C296.144 144.648 297.362 144.853 298.271 145.264C299.21 145.675 299.914 146.217 300.383 146.892C300.882 147.537 301.204 148.256 301.351 149.048C301.527 149.84 301.615 150.632 301.615 151.424C301.615 153.184 301.571 154.9 301.483 156.572C301.395 158.244 301.351 159.828 301.351 161.324C301.351 162.409 301.395 163.436 301.483 164.404C301.571 165.372 301.732 166.267 301.967 167.088H299.371L298.447 164.008H298.227C297.963 164.419 297.626 164.829 297.215 165.24C296.834 165.621 296.364 165.973 295.807 166.296C295.25 166.589 294.604 166.839 293.871 167.044C293.138 167.249 292.302 167.352 291.363 167.352C290.424 167.352 289.544 167.205 288.723 166.912C287.931 166.619 287.242 166.208 286.655 165.68C286.068 165.123 285.599 164.463 285.247 163.7C284.924 162.937 284.763 162.072 284.763 161.104C284.763 159.813 285.027 158.743 285.555 157.892C286.083 157.012 286.816 156.323 287.755 155.824C288.723 155.296 289.867 154.929 291.187 154.724C292.536 154.489 294.018 154.372 295.631 154.372C296.042 154.372 296.438 154.372 296.819 154.372C297.23 154.372 297.64 154.401 298.051 154.46C298.139 153.58 298.183 152.788 298.183 152.084C298.183 150.471 297.86 149.341 297.215 148.696C296.57 148.051 295.396 147.728 293.695 147.728C293.196 147.728 292.654 147.772 292.067 147.86C291.51 147.919 290.923 148.021 290.307 148.168C289.72 148.285 289.148 148.447 288.591 148.652C288.063 148.828 287.594 149.033 287.183 149.268L286.083 146.628ZM292.331 164.272C293.152 164.272 293.886 164.169 294.531 163.964C295.176 163.729 295.734 163.451 296.203 163.128C296.672 162.776 297.054 162.395 297.347 161.984C297.67 161.573 297.904 161.177 298.051 160.796V157.144C297.64 157.115 297.215 157.1 296.775 157.1C296.364 157.071 295.954 157.056 295.543 157.056C294.634 157.056 293.739 157.115 292.859 157.232C292.008 157.32 291.246 157.511 290.571 157.804C289.926 158.068 289.398 158.449 288.987 158.948C288.606 159.417 288.415 160.019 288.415 160.752C288.415 161.779 288.782 162.629 289.515 163.304C290.248 163.949 291.187 164.272 292.331 164.272ZM318.647 148.388C317.767 148.095 316.931 147.948 316.139 147.948C314.878 147.948 313.88 148.3 313.147 149.004C312.414 149.679 311.959 150.544 311.783 151.6V167H308.263V145H310.727L311.387 147.684H311.563C312.12 146.687 312.78 145.924 313.543 145.396C314.335 144.839 315.332 144.56 316.535 144.56C317.386 144.56 318.339 144.707 319.395 145L318.647 148.388ZM322.864 146.628C323.979 145.953 325.269 145.455 326.736 145.132C328.232 144.809 329.787 144.648 331.4 144.648C332.925 144.648 334.143 144.853 335.052 145.264C335.991 145.675 336.695 146.217 337.164 146.892C337.663 147.537 337.985 148.256 338.132 149.048C338.308 149.84 338.396 150.632 338.396 151.424C338.396 153.184 338.352 154.9 338.264 156.572C338.176 158.244 338.132 159.828 338.132 161.324C338.132 162.409 338.176 163.436 338.264 164.404C338.352 165.372 338.513 166.267 338.748 167.088H336.152L335.228 164.008H335.008C334.744 164.419 334.407 164.829 333.996 165.24C333.615 165.621 333.145 165.973 332.588 166.296C332.031 166.589 331.385 166.839 330.652 167.044C329.919 167.249 329.083 167.352 328.144 167.352C327.205 167.352 326.325 167.205 325.504 166.912C324.712 166.619 324.023 166.208 323.436 165.68C322.849 165.123 322.38 164.463 322.028 163.7C321.705 162.937 321.544 162.072 321.544 161.104C321.544 159.813 321.808 158.743 322.336 157.892C322.864 157.012 323.597 156.323 324.536 155.824C325.504 155.296 326.648 154.929 327.968 154.724C329.317 154.489 330.799 154.372 332.412 154.372C332.823 154.372 333.219 154.372 333.6 154.372C334.011 154.372 334.421 154.401 334.832 154.46C334.92 153.58 334.964 152.788 334.964 152.084C334.964 150.471 334.641 149.341 333.996 148.696C333.351 148.051 332.177 147.728 330.476 147.728C329.977 147.728 329.435 147.772 328.848 147.86C328.291 147.919 327.704 148.021 327.088 148.168C326.501 148.285 325.929 148.447 325.372 148.652C324.844 148.828 324.375 149.033 323.964 149.268L322.864 146.628ZM329.112 164.272C329.933 164.272 330.667 164.169 331.312 163.964C331.957 163.729 332.515 163.451 332.984 163.128C333.453 162.776 333.835 162.395 334.128 161.984C334.451 161.573 334.685 161.177 334.832 160.796V157.144C334.421 157.115 333.996 157.1 333.556 157.1C333.145 157.071 332.735 157.056 332.324 157.056C331.415 157.056 330.52 157.115 329.64 157.232C328.789 157.32 328.027 157.511 327.352 157.804C326.707 158.068 326.179 158.449 325.768 158.948C325.387 159.417 325.196 160.019 325.196 160.752C325.196 161.779 325.563 162.629 326.296 163.304C327.029 163.949 327.968 164.272 329.112 164.272ZM112.995 193.2H131.255V198.568H119.023V205.74H130.155V211.108H119.023V218.632H131.475V224H112.995V193.2ZM140.824 212.736L134.224 202H141.044L143.904 206.708L145.136 209.788L146.456 206.708L149.448 202H155.652L149.008 212.56L156.092 224H149.448L146.06 218.72L144.74 215.464L143.332 218.72L139.944 224H133.696L140.824 212.736ZM158.969 202H163.149L163.809 204.64H163.985C164.748 203.525 165.642 202.704 166.669 202.176C167.725 201.648 169.001 201.384 170.497 201.384C173.254 201.384 175.322 202.264 176.701 204.024C178.08 205.755 178.769 208.556 178.769 212.428C178.769 214.305 178.549 216.007 178.109 217.532C177.669 219.028 177.009 220.304 176.129 221.36C175.278 222.416 174.222 223.223 172.961 223.78C171.729 224.337 170.306 224.616 168.693 224.616C167.784 224.616 167.036 224.543 166.449 224.396C165.862 224.279 165.276 224.073 164.689 223.78V232.8H158.969V202ZM168.781 206.224C167.666 206.224 166.786 206.503 166.141 207.06C165.525 207.617 165.041 208.453 164.689 209.568V218.72C165.1 219.043 165.54 219.307 166.009 219.512C166.508 219.688 167.153 219.776 167.945 219.776C169.588 219.776 170.82 219.204 171.641 218.06C172.462 216.887 172.873 214.965 172.873 212.296C172.873 210.36 172.55 208.864 171.905 207.808C171.26 206.752 170.218 206.224 168.781 206.224ZM200.331 222.108C199.451 222.812 198.248 223.413 196.723 223.912C195.227 224.381 193.628 224.616 191.927 224.616C188.377 224.616 185.781 223.589 184.139 221.536C182.496 219.453 181.675 216.608 181.675 213C181.675 209.128 182.599 206.224 184.447 204.288C186.295 202.352 188.891 201.384 192.235 201.384C193.349 201.384 194.435 201.531 195.491 201.824C196.547 202.117 197.485 202.601 198.307 203.276C199.128 203.951 199.788 204.86 200.287 206.004C200.785 207.148 201.035 208.571 201.035 210.272C201.035 210.888 200.991 211.548 200.903 212.252C200.844 212.956 200.741 213.689 200.595 214.452H187.395C187.483 216.3 187.952 217.693 188.803 218.632C189.683 219.571 191.091 220.04 193.027 220.04C194.229 220.04 195.3 219.864 196.239 219.512C197.207 219.131 197.94 218.749 198.439 218.368L200.331 222.108ZM192.147 205.96C190.651 205.96 189.536 206.415 188.803 207.324C188.099 208.204 187.673 209.392 187.527 210.888H195.711C195.828 209.304 195.579 208.087 194.963 207.236C194.376 206.385 193.437 205.96 192.147 205.96ZM217.218 207.368C216.309 207.045 215.488 206.884 214.754 206.884C213.728 206.884 212.862 207.163 212.158 207.72C211.484 208.248 211.029 208.937 210.794 209.788V224H205.074V202H209.518L210.178 204.904H210.354C210.853 203.819 211.528 202.983 212.378 202.396C213.229 201.809 214.226 201.516 215.37 201.516C216.133 201.516 216.998 201.677 217.966 202L217.218 207.368ZM219.544 202H222.58V197.864L228.3 196.236V202H233.668V206.84H228.3V215.288C228.3 216.813 228.447 217.913 228.74 218.588C229.063 219.233 229.65 219.556 230.5 219.556C231.087 219.556 231.586 219.497 231.996 219.38C232.436 219.263 232.92 219.087 233.448 218.852L234.46 223.252C233.668 223.633 232.744 223.956 231.688 224.22C230.632 224.484 229.562 224.616 228.476 224.616C226.452 224.616 224.956 224.103 223.988 223.076C223.05 222.02 222.58 220.304 222.58 217.928V206.84H219.544V202ZM235.901 213C235.901 209.275 236.811 206.415 238.629 204.42C240.448 202.396 243 201.384 246.285 201.384C248.045 201.384 249.571 201.663 250.861 202.22C252.152 202.777 253.223 203.569 254.073 204.596C254.924 205.593 255.555 206.811 255.965 208.248C256.405 209.685 256.625 211.269 256.625 213C256.625 216.725 255.716 219.6 253.897 221.624C252.108 223.619 249.571 224.616 246.285 224.616C244.525 224.616 243 224.337 241.709 223.78C240.419 223.223 239.333 222.445 238.453 221.448C237.603 220.421 236.957 219.189 236.517 217.752C236.107 216.315 235.901 214.731 235.901 213ZM241.797 213C241.797 213.968 241.885 214.863 242.061 215.684C242.237 216.505 242.501 217.224 242.853 217.84C243.205 218.456 243.66 218.94 244.217 219.292C244.804 219.615 245.493 219.776 246.285 219.776C247.781 219.776 248.896 219.233 249.629 218.148C250.363 217.063 250.729 215.347 250.729 213C250.729 210.976 250.392 209.348 249.717 208.116C249.043 206.855 247.899 206.224 246.285 206.224C244.877 206.224 243.777 206.752 242.985 207.808C242.193 208.864 241.797 210.595 241.797 213ZM269.698 217.928C269.698 217.341 269.449 216.872 268.95 216.52C268.451 216.168 267.835 215.845 267.102 215.552C266.369 215.259 265.562 214.965 264.682 214.672C263.802 214.349 262.995 213.924 262.262 213.396C261.529 212.839 260.913 212.149 260.414 211.328C259.915 210.477 259.666 209.392 259.666 208.072C259.666 205.901 260.311 204.244 261.602 203.1C262.893 201.956 264.755 201.384 267.19 201.384C268.862 201.384 270.373 201.56 271.722 201.912C273.071 202.264 274.127 202.66 274.89 203.1L273.614 207.236C272.939 206.972 272.089 206.693 271.062 206.4C270.035 206.107 268.994 205.96 267.938 205.96C266.237 205.96 265.386 206.62 265.386 207.94C265.386 208.468 265.635 208.893 266.134 209.216C266.633 209.539 267.249 209.847 267.982 210.14C268.715 210.404 269.522 210.697 270.402 211.02C271.282 211.343 272.089 211.768 272.822 212.296C273.555 212.795 274.171 213.455 274.67 214.276C275.169 215.097 275.418 216.153 275.418 217.444C275.418 219.673 274.699 221.433 273.262 222.724C271.854 223.985 269.727 224.616 266.882 224.616C265.327 224.616 263.861 224.411 262.482 224C261.133 223.619 260.033 223.164 259.182 222.636L260.766 218.368C261.441 218.749 262.335 219.131 263.45 219.512C264.565 219.864 265.709 220.04 266.882 220.04C267.733 220.04 268.407 219.879 268.906 219.556C269.434 219.233 269.698 218.691 269.698 217.928Z" fill="#373737"/>
<path d="M54.0523 61.6631C54.0523 64.4166 53.1544 66.6314 51.3586 68.3074C49.5629 69.8637 47.2882 70.6419 44.5347 70.6419C41.3024 70.6419 38.6088 69.5645 36.4538 67.4096C34.4187 65.2546 33.4011 62.0821 33.4011 57.892C33.4011 53.9414 33.9398 50.5893 35.0172 47.8358C36.2144 44.9626 37.5912 42.5683 39.1475 40.6528C40.8235 38.6176 42.4996 37.0014 44.1756 35.8042C45.9714 34.6071 47.5277 33.769 48.8446 33.2902L53.334 39.5753C50.7002 40.8922 48.5453 42.688 46.8692 44.9626C45.3129 47.1175 44.5347 49.871 44.5347 53.2231C45.0136 53.1034 45.6721 53.0435 46.5101 53.0435C48.9044 53.0435 50.76 53.8815 52.0769 55.5576C53.3938 57.2336 54.0523 59.2688 54.0523 61.6631ZM27.8342 61.6631C27.8342 64.4166 26.9363 66.6314 25.1406 68.3074C23.3448 69.8637 21.0702 70.6419 18.3167 70.6419C15.0844 70.6419 12.3907 69.5645 10.2358 67.4096C8.20062 65.2546 7.18302 62.0821 7.18302 57.892C7.18302 53.9414 7.72175 50.5893 8.7992 47.8358C9.99638 44.9626 11.3731 42.5683 12.9294 40.6528C14.6055 38.6176 16.2815 37.0014 17.9576 35.8042C19.7533 34.6071 21.3096 33.769 22.6265 33.2902L27.1159 39.5753C24.4821 40.8922 22.3272 42.688 20.6512 44.9626C19.0949 47.1175 18.3167 49.871 18.3167 53.2231C18.7956 53.1034 19.454 53.0435 20.292 53.0435C22.6864 53.0435 24.542 53.8815 25.8589 55.5576C27.1758 57.2336 27.8342 59.2688 27.8342 61.6631Z" fill="white"/>
<path d="M332.948 217.337C332.948 214.583 333.846 212.369 335.641 210.693C337.437 209.136 339.712 208.358 342.465 208.358C345.698 208.358 348.391 209.436 350.546 211.59C352.581 213.745 353.599 216.918 353.599 221.108C353.599 225.059 353.06 228.411 351.983 231.164C350.786 234.037 349.409 236.432 347.853 238.347C346.176 240.382 344.5 241.999 342.824 243.196C341.029 244.393 339.472 245.231 338.155 245.71L333.666 239.425C336.3 238.108 338.455 236.312 340.131 234.037C341.687 231.882 342.465 229.129 342.465 225.777C341.986 225.897 341.328 225.956 340.49 225.956C338.096 225.956 336.24 225.118 334.923 223.442C333.606 221.766 332.948 219.731 332.948 217.337ZM359.166 217.337C359.166 214.583 360.064 212.369 361.859 210.693C363.655 209.136 365.93 208.358 368.683 208.358C371.916 208.358 374.609 209.436 376.764 211.59C378.799 213.745 379.817 216.918 379.817 221.108C379.817 225.059 379.278 228.411 378.201 231.164C377.004 234.037 375.627 236.432 374.071 238.347C372.395 240.382 370.718 241.999 369.042 243.196C367.247 244.393 365.69 245.231 364.373 245.71L359.884 239.425C362.518 238.108 364.673 236.312 366.349 234.037C367.905 231.882 368.683 229.129 368.683 225.777C368.204 225.897 367.546 225.957 366.708 225.957C364.314 225.957 362.458 225.118 361.141 223.442C359.824 221.766 359.166 219.731 359.166 217.337Z" fill="white"/>
</svg>
