<svg width="279" height="96" viewBox="0 0 279 96" fill="none" xmlns="http://www.w3.org/2000/svg">
<path d="M38.6629 27.1402C39.1696 27.0202 39.7162 26.9402 40.3029 26.9002C40.8896 26.8602 41.4696 26.8402 42.0429 26.8402C42.6562 26.8402 43.2762 26.9002 43.9029 27.0202C44.5429 27.1402 45.1229 27.3602 45.6429 27.6802C46.1629 28.0002 46.5829 28.4402 46.9029 29.0002C47.2362 29.5602 47.4029 30.2736 47.4029 31.1402C47.4029 31.9936 47.2496 32.7136 46.9429 33.3002C46.6362 33.8869 46.2296 34.3669 45.7229 34.7402C45.2162 35.1002 44.6362 35.3602 43.9829 35.5202C43.3296 35.6802 42.6562 35.7602 41.9629 35.7602C41.8962 35.7602 41.7829 35.7602 41.6229 35.7602C41.4762 35.7602 41.3162 35.7602 41.1429 35.7602C40.9829 35.7469 40.8229 35.7336 40.6629 35.7202C40.5029 35.7069 40.3896 35.6936 40.3229 35.6802V41.0002H38.6629V27.1402ZM42.0829 28.2802C41.7362 28.2802 41.4029 28.2869 41.0829 28.3002C40.7629 28.3136 40.5096 28.3469 40.3229 28.4002V34.2002C40.3896 34.2269 40.4962 34.2469 40.6429 34.2602C40.7896 34.2602 40.9429 34.2669 41.1029 34.2802C41.2629 34.2802 41.4162 34.2802 41.5629 34.2802C41.7096 34.2802 41.8162 34.2802 41.8829 34.2802C42.3362 34.2802 42.7829 34.2402 43.2229 34.1602C43.6762 34.0669 44.0829 33.9069 44.4429 33.6802C44.8029 33.4536 45.0896 33.1336 45.3029 32.7202C45.5296 32.3069 45.6429 31.7802 45.6429 31.1402C45.6429 30.5936 45.5362 30.1402 45.3229 29.7802C45.1229 29.4069 44.8496 29.1136 44.5029 28.9002C44.1696 28.6736 43.7896 28.5136 43.3629 28.4202C42.9362 28.3269 42.5096 28.2802 42.0829 28.2802ZM53.6916 32.5402C53.2916 32.4069 52.9116 32.3402 52.5516 32.3402C51.9783 32.3402 51.525 32.5002 51.1916 32.8202C50.8583 33.1269 50.6516 33.5202 50.5716 34.0002V41.0002H48.9716V31.0002H50.0916L50.3916 32.2202H50.4716C50.725 31.7669 51.025 31.4202 51.3716 31.1802C51.7316 30.9269 52.185 30.8002 52.7316 30.8002C53.1183 30.8002 53.5516 30.8669 54.0316 31.0002L53.6916 32.5402ZM55.2085 36.0002C55.2085 34.3069 55.5818 33.0136 56.3285 32.1202C57.0885 31.2136 58.1752 30.7602 59.5885 30.7602C60.3352 30.7602 60.9818 30.8869 61.5285 31.1402C62.0885 31.3802 62.5485 31.7336 62.9085 32.2002C63.2685 32.6536 63.5352 33.2069 63.7085 33.8602C63.8818 34.5002 63.9685 35.2136 63.9685 36.0002C63.9685 37.6936 63.5885 38.9936 62.8285 39.9002C62.0818 40.7936 61.0018 41.2402 59.5885 41.2402C58.8418 41.2402 58.1885 41.1202 57.6285 40.8802C57.0818 40.6269 56.6285 40.2736 56.2685 39.8202C55.9085 39.3536 55.6418 38.8002 55.4685 38.1602C55.2952 37.5069 55.2085 36.7869 55.2085 36.0002ZM56.8685 36.0002C56.8685 36.5069 56.9152 36.9936 57.0085 37.4602C57.1152 37.9269 57.2752 38.3336 57.4885 38.6802C57.7018 39.0269 57.9818 39.3069 58.3285 39.5202C58.6752 39.7336 59.0952 39.8402 59.5885 39.8402C61.4018 39.8536 62.3085 38.5736 62.3085 36.0002C62.3085 35.4802 62.2552 34.9869 62.1485 34.5202C62.0552 34.0536 61.9018 33.6469 61.6885 33.3002C61.4752 32.9536 61.1952 32.6802 60.8485 32.4802C60.5018 32.2669 60.0818 32.1602 59.5885 32.1602C57.7752 32.1469 56.8685 33.4269 56.8685 36.0002ZM65.1568 31.0002H66.7168V30.4402C66.7168 29.8269 66.7635 29.2936 66.8568 28.8402C66.9635 28.3869 67.1301 28.0202 67.3568 27.7402C67.5835 27.4469 67.8768 27.2336 68.2368 27.1002C68.5968 26.9536 69.0435 26.8802 69.5768 26.8802C70.0035 26.8802 70.3768 26.9069 70.6968 26.9602C71.0301 27.0136 71.3768 27.1136 71.7368 27.2602L71.3768 28.6002C71.0701 28.4669 70.7768 28.3802 70.4968 28.3402C70.2301 28.3002 69.9768 28.2802 69.7368 28.2802C69.3901 28.2802 69.1168 28.3336 68.9168 28.4402C68.7301 28.5469 68.5901 28.7069 68.4968 28.9202C68.4168 29.1202 68.3635 29.3736 68.3368 29.6802C68.3235 29.9736 68.3168 30.3202 68.3168 30.7202V31.0002H70.9768V32.4002H68.3168V41.0002H66.7168V32.4002H65.1568V31.0002ZM79.7287 40.2002C79.3287 40.5202 78.822 40.7736 78.2087 40.9602C77.6087 41.1469 76.9687 41.2402 76.2887 41.2402C75.5287 41.2402 74.8687 41.1202 74.3087 40.8802C73.7487 40.6269 73.2887 40.2736 72.9287 39.8202C72.5687 39.3536 72.302 38.8002 72.1287 38.1602C71.9553 37.5202 71.8687 36.8002 71.8687 36.0002C71.8687 34.2936 72.2487 32.9936 73.0087 32.1002C73.7687 31.2069 74.8553 30.7602 76.2687 30.7602C76.722 30.7602 77.1753 30.8136 77.6287 30.9202C78.082 31.0136 78.4887 31.2002 78.8487 31.4802C79.2087 31.7602 79.502 32.1602 79.7287 32.6802C79.9553 33.1869 80.0687 33.8602 80.0687 34.7002C80.0687 35.1402 80.0287 35.6269 79.9487 36.1602H73.5287C73.5287 36.7469 73.5887 37.2669 73.7087 37.7202C73.8287 38.1736 74.0153 38.5602 74.2687 38.8802C74.522 39.1869 74.8487 39.4269 75.2487 39.6002C75.662 39.7602 76.162 39.8402 76.7487 39.8402C77.202 39.8402 77.6553 39.7602 78.1087 39.6002C78.562 39.4402 78.902 39.2536 79.1287 39.0402L79.7287 40.2002ZM76.2887 32.1602C75.502 32.1602 74.8687 32.3669 74.3887 32.7802C73.922 33.1936 73.642 33.9002 73.5487 34.9002H78.5087C78.5087 33.8869 78.3153 33.1802 77.9287 32.7802C77.542 32.3669 76.9953 32.1602 76.2887 32.1602ZM86.9849 38.2802C86.9849 37.8802 86.8649 37.5669 86.6249 37.3402C86.3849 37.1136 86.0849 36.9269 85.7249 36.7802C85.3783 36.6202 84.9916 36.4736 84.5649 36.3402C84.1516 36.1936 83.7649 36.0136 83.4049 35.8002C83.0583 35.5736 82.7649 35.2869 82.5249 34.9402C82.2849 34.5936 82.1649 34.1269 82.1649 33.5402C82.1649 32.5802 82.4383 31.8802 82.9849 31.4402C83.5316 30.9869 84.2916 30.7602 85.2649 30.7602C85.9849 30.7602 86.5849 30.8269 87.0649 30.9602C87.5583 31.0802 87.9849 31.2269 88.3449 31.4002L87.9649 32.7202C87.6583 32.5736 87.2849 32.4469 86.8449 32.3402C86.4183 32.2202 85.9583 32.1602 85.4649 32.1602C84.8783 32.1602 84.4449 32.2602 84.1649 32.4602C83.8983 32.6602 83.7649 33.0069 83.7649 33.5002C83.7649 33.8469 83.8849 34.1202 84.1249 34.3202C84.3649 34.5069 84.6583 34.6802 85.0049 34.8402C85.3649 34.9869 85.7516 35.1336 86.1649 35.2802C86.5916 35.4269 86.9783 35.6202 87.3249 35.8602C87.6849 36.1002 87.9849 36.4069 88.2249 36.7802C88.4649 37.1402 88.5849 37.6202 88.5849 38.2202C88.5849 38.6469 88.5116 39.0469 88.3649 39.4202C88.2316 39.7936 88.0183 40.1136 87.7249 40.3802C87.4316 40.6469 87.0649 40.8536 86.6249 41.0002C86.1983 41.1602 85.6916 41.2402 85.1049 41.2402C84.3449 41.2402 83.6983 41.1669 83.1649 41.0202C82.6316 40.8736 82.1849 40.7002 81.8249 40.5002L82.3049 39.1402C82.6116 39.3136 83.0116 39.4736 83.5049 39.6202C83.9983 39.7669 84.4983 39.8402 85.0049 39.8402C85.5783 39.8402 86.0516 39.7269 86.4249 39.5002C86.7983 39.2736 86.9849 38.8669 86.9849 38.2802ZM91.3429 31.0002H92.9429V41.0002H91.3429V31.0002ZM91.0029 27.9602C91.0029 27.6536 91.1029 27.3936 91.3029 27.1802C91.5162 26.9536 91.7829 26.8402 92.1029 26.8402C92.4229 26.8402 92.6962 26.9536 92.9229 27.1802C93.1496 27.3936 93.2629 27.6536 93.2629 27.9602C93.2629 28.2669 93.1496 28.5202 92.9229 28.7202C92.6962 28.9202 92.4229 29.0202 92.1029 29.0202C91.7829 29.0202 91.5162 28.9202 91.3029 28.7202C91.1029 28.5202 91.0029 28.2669 91.0029 27.9602ZM95.7945 36.0002C95.7945 34.3069 96.1678 33.0136 96.9145 32.1202C97.6745 31.2136 98.7611 30.7602 100.174 30.7602C100.921 30.7602 101.568 30.8869 102.114 31.1402C102.674 31.3802 103.134 31.7336 103.494 32.2002C103.854 32.6536 104.121 33.2069 104.294 33.8602C104.468 34.5002 104.554 35.2136 104.554 36.0002C104.554 37.6936 104.174 38.9936 103.414 39.9002C102.668 40.7936 101.588 41.2402 100.174 41.2402C99.4278 41.2402 98.7745 41.1202 98.2145 40.8802C97.6678 40.6269 97.2145 40.2736 96.8545 39.8202C96.4945 39.3536 96.2278 38.8002 96.0545 38.1602C95.8811 37.5069 95.7945 36.7869 95.7945 36.0002ZM97.4545 36.0002C97.4545 36.5069 97.5011 36.9936 97.5945 37.4602C97.7011 37.9269 97.8611 38.3336 98.0745 38.6802C98.2878 39.0269 98.5678 39.3069 98.9145 39.5202C99.2611 39.7336 99.6811 39.8402 100.174 39.8402C101.988 39.8536 102.894 38.5736 102.894 36.0002C102.894 35.4802 102.841 34.9869 102.734 34.5202C102.641 34.0536 102.488 33.6469 102.274 33.3002C102.061 32.9536 101.781 32.6802 101.434 32.4802C101.088 32.2669 100.668 32.1602 100.174 32.1602C98.3611 32.1469 97.4545 33.4269 97.4545 36.0002ZM113.497 41.0002V35.3002C113.497 34.2602 113.344 33.4802 113.037 32.9602C112.744 32.4269 112.197 32.1602 111.397 32.1602C110.69 32.1602 110.104 32.3536 109.637 32.7402C109.184 33.1136 108.864 33.5869 108.677 34.1602V41.0002H107.077V31.0002H108.197L108.497 32.2202H108.577C108.897 31.7936 109.324 31.4469 109.857 31.1802C110.404 30.9002 111.05 30.7602 111.797 30.7602C112.344 30.7602 112.824 30.8269 113.237 30.9602C113.65 31.0802 113.99 31.3002 114.257 31.6202C114.537 31.9402 114.744 32.3736 114.877 32.9202C115.024 33.4536 115.097 34.1336 115.097 34.9602V41.0002H113.497ZM117.855 31.7402C118.361 31.4336 118.948 31.2069 119.615 31.0602C120.295 30.9136 121.001 30.8402 121.735 30.8402C122.428 30.8402 122.981 30.9336 123.395 31.1202C123.821 31.3069 124.141 31.5536 124.355 31.8602C124.581 32.1536 124.728 32.4802 124.795 32.8402C124.875 33.2002 124.915 33.5602 124.915 33.9202C124.915 34.7202 124.895 35.5002 124.855 36.2602C124.815 37.0202 124.795 37.7402 124.795 38.4202C124.795 38.9136 124.815 39.3802 124.855 39.8202C124.895 40.2602 124.968 40.6669 125.075 41.0402H123.895L123.475 39.6402H123.375C123.255 39.8269 123.101 40.0136 122.915 40.2002C122.741 40.3736 122.528 40.5336 122.275 40.6802C122.021 40.8136 121.728 40.9269 121.395 41.0202C121.061 41.1136 120.681 41.1602 120.255 41.1602C119.828 41.1602 119.428 41.0936 119.055 40.9602C118.695 40.8269 118.381 40.6402 118.115 40.4002C117.848 40.1469 117.635 39.8469 117.475 39.5002C117.328 39.1536 117.255 38.7602 117.255 38.3202C117.255 37.7336 117.375 37.2469 117.615 36.8602C117.855 36.4602 118.188 36.1469 118.615 35.9202C119.055 35.6802 119.575 35.5136 120.175 35.4202C120.788 35.3136 121.461 35.2602 122.195 35.2602C122.381 35.2602 122.561 35.2602 122.735 35.2602C122.921 35.2602 123.108 35.2736 123.295 35.3002C123.335 34.9002 123.355 34.5402 123.355 34.2202C123.355 33.4869 123.208 32.9736 122.915 32.6802C122.621 32.3869 122.088 32.2402 121.315 32.2402C121.088 32.2402 120.841 32.2602 120.575 32.3002C120.321 32.3269 120.055 32.3736 119.775 32.4402C119.508 32.4936 119.248 32.5669 118.995 32.6602C118.755 32.7402 118.541 32.8336 118.355 32.9402L117.855 31.7402ZM120.695 39.7602C121.068 39.7602 121.401 39.7136 121.695 39.6202C121.988 39.5136 122.241 39.3869 122.455 39.2402C122.668 39.0802 122.841 38.9069 122.975 38.7202C123.121 38.5336 123.228 38.3536 123.295 38.1802V36.5202C123.108 36.5069 122.915 36.5002 122.715 36.5002C122.528 36.4869 122.341 36.4802 122.155 36.4802C121.741 36.4802 121.335 36.5069 120.935 36.5602C120.548 36.6002 120.201 36.6869 119.895 36.8202C119.601 36.9402 119.361 37.1136 119.175 37.3402C119.001 37.5536 118.915 37.8269 118.915 38.1602C118.915 38.6269 119.081 39.0136 119.415 39.3202C119.748 39.6136 120.175 39.7602 120.695 39.7602ZM129.716 38.5402C129.716 39.0069 129.796 39.3402 129.956 39.5402C130.116 39.7402 130.343 39.8402 130.636 39.8402C130.81 39.8402 130.996 39.8269 131.196 39.8002C131.396 39.7736 131.623 39.7136 131.876 39.6202L132.056 40.8802C131.843 40.9869 131.543 41.0736 131.156 41.1402C130.783 41.2069 130.456 41.2402 130.176 41.2402C129.576 41.2402 129.083 41.0736 128.696 40.7402C128.31 40.3936 128.116 39.8136 128.116 39.0002V27.0002H129.716V38.5402ZM141.076 40.2002C140.676 40.5202 140.17 40.7736 139.556 40.9602C138.956 41.1469 138.316 41.2402 137.636 41.2402C136.876 41.2402 136.216 41.1202 135.656 40.8802C135.096 40.6269 134.636 40.2736 134.276 39.8202C133.916 39.3536 133.65 38.8002 133.476 38.1602C133.303 37.5202 133.216 36.8002 133.216 36.0002C133.216 34.2936 133.596 32.9936 134.356 32.1002C135.116 31.2069 136.203 30.7602 137.616 30.7602C138.07 30.7602 138.523 30.8136 138.976 30.9202C139.43 31.0136 139.836 31.2002 140.196 31.4802C140.556 31.7602 140.85 32.1602 141.076 32.6802C141.303 33.1869 141.416 33.8602 141.416 34.7002C141.416 35.1402 141.376 35.6269 141.296 36.1602H134.876C134.876 36.7469 134.936 37.2669 135.056 37.7202C135.176 38.1736 135.363 38.5602 135.616 38.8802C135.87 39.1869 136.196 39.4269 136.596 39.6002C137.01 39.7602 137.51 39.8402 138.096 39.8402C138.55 39.8402 139.003 39.7602 139.456 39.6002C139.91 39.4402 140.25 39.2536 140.476 39.0402L141.076 40.2002ZM137.636 32.1602C136.85 32.1602 136.216 32.3669 135.736 32.7802C135.27 33.1936 134.99 33.9002 134.896 34.9002H139.856C139.856 33.8869 139.663 33.1802 139.276 32.7802C138.89 32.3669 138.343 32.1602 137.636 32.1602ZM148.333 38.2802C148.333 37.8802 148.213 37.5669 147.973 37.3402C147.733 37.1136 147.433 36.9269 147.073 36.7802C146.726 36.6202 146.339 36.4736 145.913 36.3402C145.499 36.1936 145.113 36.0136 144.753 35.8002C144.406 35.5736 144.113 35.2869 143.873 34.9402C143.633 34.5936 143.513 34.1269 143.513 33.5402C143.513 32.5802 143.786 31.8802 144.333 31.4402C144.879 30.9869 145.639 30.7602 146.613 30.7602C147.333 30.7602 147.933 30.8269 148.413 30.9602C148.906 31.0802 149.333 31.2269 149.693 31.4002L149.313 32.7202C149.006 32.5736 148.633 32.4469 148.193 32.3402C147.766 32.2202 147.306 32.1602 146.813 32.1602C146.226 32.1602 145.793 32.2602 145.513 32.4602C145.246 32.6602 145.113 33.0069 145.113 33.5002C145.113 33.8469 145.233 34.1202 145.473 34.3202C145.713 34.5069 146.006 34.6802 146.353 34.8402C146.713 34.9869 147.099 35.1336 147.513 35.2802C147.939 35.4269 148.326 35.6202 148.673 35.8602C149.033 36.1002 149.333 36.4069 149.573 36.7802C149.813 37.1402 149.933 37.6202 149.933 38.2202C149.933 38.6469 149.859 39.0469 149.713 39.4202C149.579 39.7936 149.366 40.1136 149.073 40.3802C148.779 40.6469 148.413 40.8536 147.973 41.0002C147.546 41.1602 147.039 41.2402 146.453 41.2402C145.693 41.2402 145.046 41.1669 144.513 41.0202C143.979 40.8736 143.533 40.7002 143.173 40.5002L143.653 39.1402C143.959 39.3136 144.359 39.4736 144.853 39.6202C145.346 39.7669 145.846 39.8402 146.353 39.8402C146.926 39.8402 147.399 39.7269 147.773 39.5002C148.146 39.2736 148.333 38.8669 148.333 38.2802ZM156.363 31.0002H157.923V29.0202L159.523 28.5602V31.0002H162.243V32.4002H159.523V37.9402C159.523 38.6336 159.609 39.1269 159.783 39.4202C159.956 39.7002 160.249 39.8402 160.663 39.8402C161.009 39.8402 161.303 39.8069 161.543 39.7402C161.783 39.6602 162.049 39.5602 162.343 39.4402L162.703 40.6602C162.343 40.8336 161.949 40.9736 161.523 41.0802C161.096 41.1869 160.636 41.2402 160.143 41.2402C159.329 41.2402 158.756 41.0136 158.423 40.5602C158.089 40.0936 157.923 39.3202 157.923 38.2402V32.4002H156.363V31.0002ZM169.18 32.5402C168.78 32.4069 168.4 32.3402 168.04 32.3402C167.467 32.3402 167.013 32.5002 166.68 32.8202C166.347 33.1269 166.14 33.5202 166.06 34.0002V41.0002H164.46V31.0002H165.58L165.88 32.2202H165.96C166.213 31.7669 166.513 31.4202 166.86 31.1802C167.22 30.9269 167.673 30.8002 168.22 30.8002C168.607 30.8002 169.04 30.8669 169.52 31.0002L169.18 32.5402ZM171.097 31.7402C171.603 31.4336 172.19 31.2069 172.857 31.0602C173.537 30.9136 174.243 30.8402 174.977 30.8402C175.67 30.8402 176.223 30.9336 176.637 31.1202C177.063 31.3069 177.383 31.5536 177.597 31.8602C177.823 32.1536 177.97 32.4802 178.037 32.8402C178.117 33.2002 178.157 33.5602 178.157 33.9202C178.157 34.7202 178.137 35.5002 178.097 36.2602C178.057 37.0202 178.037 37.7402 178.037 38.4202C178.037 38.9136 178.057 39.3802 178.097 39.8202C178.137 40.2602 178.21 40.6669 178.317 41.0402H177.137L176.717 39.6402H176.617C176.497 39.8269 176.343 40.0136 176.157 40.2002C175.983 40.3736 175.77 40.5336 175.517 40.6802C175.263 40.8136 174.97 40.9269 174.637 41.0202C174.303 41.1136 173.923 41.1602 173.497 41.1602C173.07 41.1602 172.67 41.0936 172.297 40.9602C171.937 40.8269 171.623 40.6402 171.357 40.4002C171.09 40.1469 170.877 39.8469 170.717 39.5002C170.57 39.1536 170.497 38.7602 170.497 38.3202C170.497 37.7336 170.617 37.2469 170.857 36.8602C171.097 36.4602 171.43 36.1469 171.857 35.9202C172.297 35.6802 172.817 35.5136 173.417 35.4202C174.03 35.3136 174.703 35.2602 175.437 35.2602C175.623 35.2602 175.803 35.2602 175.977 35.2602C176.163 35.2602 176.35 35.2736 176.537 35.3002C176.577 34.9002 176.597 34.5402 176.597 34.2202C176.597 33.4869 176.45 32.9736 176.157 32.6802C175.863 32.3869 175.33 32.2402 174.557 32.2402C174.33 32.2402 174.083 32.2602 173.817 32.3002C173.563 32.3269 173.297 32.3736 173.017 32.4402C172.75 32.4936 172.49 32.5669 172.237 32.6602C171.997 32.7402 171.783 32.8336 171.597 32.9402L171.097 31.7402ZM173.937 39.7602C174.31 39.7602 174.643 39.7136 174.937 39.6202C175.23 39.5136 175.483 39.3869 175.697 39.2402C175.91 39.0802 176.083 38.9069 176.217 38.7202C176.363 38.5336 176.47 38.3536 176.537 38.1802V36.5202C176.35 36.5069 176.157 36.5002 175.957 36.5002C175.77 36.4869 175.583 36.4802 175.397 36.4802C174.983 36.4802 174.577 36.5069 174.177 36.5602C173.79 36.6002 173.443 36.6869 173.137 36.8202C172.843 36.9402 172.603 37.1136 172.417 37.3402C172.243 37.5536 172.157 37.8269 172.157 38.1602C172.157 38.6269 172.323 39.0136 172.657 39.3202C172.99 39.6136 173.417 39.7602 173.937 39.7602ZM181.179 27.0002H182.779V31.9802H182.859C183.165 31.5936 183.552 31.2936 184.019 31.0802C184.499 30.8669 185.019 30.7602 185.579 30.7602C186.872 30.7602 187.839 31.1736 188.479 32.0002C189.132 32.8269 189.459 34.1069 189.459 35.8402C189.459 37.5869 189.032 38.9136 188.179 39.8202C187.325 40.7269 186.125 41.1802 184.579 41.1802C183.832 41.1802 183.152 41.1002 182.539 40.9402C181.939 40.7802 181.485 40.6069 181.179 40.4202V27.0002ZM185.299 32.1602C184.632 32.1602 184.092 32.3469 183.679 32.7202C183.265 33.0936 182.965 33.6202 182.779 34.3002V39.3402C183.032 39.4869 183.339 39.6002 183.699 39.6802C184.059 39.7469 184.432 39.7802 184.819 39.7802C185.725 39.7802 186.445 39.4602 186.979 38.8202C187.525 38.1802 187.799 37.1802 187.799 35.8202C187.799 35.3002 187.752 34.8136 187.659 34.3602C187.565 33.9069 187.419 33.5202 187.219 33.2002C187.019 32.8802 186.759 32.6269 186.439 32.4402C186.132 32.2536 185.752 32.1602 185.299 32.1602ZM191.819 31.7402C192.326 31.4336 192.913 31.2069 193.579 31.0602C194.259 30.9136 194.966 30.8402 195.699 30.8402C196.393 30.8402 196.946 30.9336 197.359 31.1202C197.786 31.3069 198.106 31.5536 198.319 31.8602C198.546 32.1536 198.693 32.4802 198.759 32.8402C198.839 33.2002 198.879 33.5602 198.879 33.9202C198.879 34.7202 198.859 35.5002 198.819 36.2602C198.779 37.0202 198.759 37.7402 198.759 38.4202C198.759 38.9136 198.779 39.3802 198.819 39.8202C198.859 40.2602 198.933 40.6669 199.039 41.0402H197.859L197.439 39.6402H197.339C197.219 39.8269 197.066 40.0136 196.879 40.2002C196.706 40.3736 196.493 40.5336 196.239 40.6802C195.986 40.8136 195.693 40.9269 195.359 41.0202C195.026 41.1136 194.646 41.1602 194.219 41.1602C193.793 41.1602 193.393 41.0936 193.019 40.9602C192.659 40.8269 192.346 40.6402 192.079 40.4002C191.813 40.1469 191.599 39.8469 191.439 39.5002C191.293 39.1536 191.219 38.7602 191.219 38.3202C191.219 37.7336 191.339 37.2469 191.579 36.8602C191.819 36.4602 192.153 36.1469 192.579 35.9202C193.019 35.6802 193.539 35.5136 194.139 35.4202C194.753 35.3136 195.426 35.2602 196.159 35.2602C196.346 35.2602 196.526 35.2602 196.699 35.2602C196.886 35.2602 197.073 35.2736 197.259 35.3002C197.299 34.9002 197.319 34.5402 197.319 34.2202C197.319 33.4869 197.173 32.9736 196.879 32.6802C196.586 32.3869 196.053 32.2402 195.279 32.2402C195.053 32.2402 194.806 32.2602 194.539 32.3002C194.286 32.3269 194.019 32.3736 193.739 32.4402C193.473 32.4936 193.213 32.5669 192.959 32.6602C192.719 32.7402 192.506 32.8336 192.319 32.9402L191.819 31.7402ZM194.659 39.7602C195.033 39.7602 195.366 39.7136 195.659 39.6202C195.953 39.5136 196.206 39.3869 196.419 39.2402C196.633 39.0802 196.806 38.9069 196.939 38.7202C197.086 38.5336 197.193 38.3536 197.259 38.1802V36.5202C197.073 36.5069 196.879 36.5002 196.679 36.5002C196.493 36.4869 196.306 36.4802 196.119 36.4802C195.706 36.4802 195.299 36.5069 194.899 36.5602C194.513 36.6002 194.166 36.6869 193.859 36.8202C193.566 36.9402 193.326 37.1136 193.139 37.3402C192.966 37.5536 192.879 37.8269 192.879 38.1602C192.879 38.6269 193.046 39.0136 193.379 39.3202C193.713 39.6136 194.139 39.7602 194.659 39.7602ZM202.221 31.0002H203.821V41.5402C203.821 42.7802 203.608 43.7069 203.181 44.3202C202.755 44.9336 202.075 45.2402 201.141 45.2402C201.035 45.2402 200.935 45.2336 200.841 45.2202C200.748 45.2202 200.648 45.2136 200.541 45.2002V43.8402C200.915 43.8402 201.208 43.7802 201.421 43.6602C201.648 43.5536 201.821 43.3802 201.941 43.1402C202.061 42.9002 202.135 42.5936 202.161 42.2202C202.201 41.8602 202.221 41.4336 202.221 40.9402V31.0002ZM201.881 27.9602C201.881 27.6536 201.981 27.3936 202.181 27.1802C202.395 26.9536 202.661 26.8402 202.981 26.8402C203.301 26.8402 203.575 26.9536 203.801 27.1802C204.028 27.3936 204.141 27.6536 204.141 27.9602C204.141 28.2669 204.028 28.5202 203.801 28.7202C203.575 28.9202 203.301 29.0202 202.981 29.0202C202.661 29.0202 202.395 28.9202 202.181 28.7202C201.981 28.5202 201.881 28.2669 201.881 27.9602ZM207.073 31.7402C207.58 31.4336 208.167 31.2069 208.833 31.0602C209.513 30.9136 210.22 30.8402 210.953 30.8402C211.647 30.8402 212.2 30.9336 212.613 31.1202C213.04 31.3069 213.36 31.5536 213.573 31.8602C213.8 32.1536 213.947 32.4802 214.013 32.8402C214.093 33.2002 214.133 33.5602 214.133 33.9202C214.133 34.7202 214.113 35.5002 214.073 36.2602C214.033 37.0202 214.013 37.7402 214.013 38.4202C214.013 38.9136 214.033 39.3802 214.073 39.8202C214.113 40.2602 214.187 40.6669 214.293 41.0402H213.113L212.693 39.6402H212.593C212.473 39.8269 212.32 40.0136 212.133 40.2002C211.96 40.3736 211.747 40.5336 211.493 40.6802C211.24 40.8136 210.947 40.9269 210.613 41.0202C210.28 41.1136 209.9 41.1602 209.473 41.1602C209.047 41.1602 208.647 41.0936 208.273 40.9602C207.913 40.8269 207.6 40.6402 207.333 40.4002C207.067 40.1469 206.853 39.8469 206.693 39.5002C206.547 39.1536 206.473 38.7602 206.473 38.3202C206.473 37.7336 206.593 37.2469 206.833 36.8602C207.073 36.4602 207.407 36.1469 207.833 35.9202C208.273 35.6802 208.793 35.5136 209.393 35.4202C210.007 35.3136 210.68 35.2602 211.413 35.2602C211.6 35.2602 211.78 35.2602 211.953 35.2602C212.14 35.2602 212.327 35.2736 212.513 35.3002C212.553 34.9002 212.573 34.5402 212.573 34.2202C212.573 33.4869 212.427 32.9736 212.133 32.6802C211.84 32.3869 211.307 32.2402 210.533 32.2402C210.307 32.2402 210.06 32.2602 209.793 32.3002C209.54 32.3269 209.273 32.3736 208.993 32.4402C208.727 32.4936 208.467 32.5669 208.213 32.6602C207.973 32.7402 207.76 32.8336 207.573 32.9402L207.073 31.7402ZM209.913 39.7602C210.287 39.7602 210.62 39.7136 210.913 39.6202C211.207 39.5136 211.46 39.3869 211.673 39.2402C211.887 39.0802 212.06 38.9069 212.193 38.7202C212.34 38.5336 212.447 38.3536 212.513 38.1802V36.5202C212.327 36.5069 212.133 36.5002 211.933 36.5002C211.747 36.4869 211.56 36.4802 211.373 36.4802C210.96 36.4802 210.553 36.5069 210.153 36.5602C209.767 36.6002 209.42 36.6869 209.113 36.8202C208.82 36.9402 208.58 37.1136 208.393 37.3402C208.22 37.5536 208.133 37.8269 208.133 38.1602C208.133 38.6269 208.3 39.0136 208.633 39.3202C208.967 39.6136 209.393 39.7602 209.913 39.7602ZM223.575 41.0002V35.3002C223.575 34.2602 223.422 33.4802 223.115 32.9602C222.822 32.4269 222.275 32.1602 221.475 32.1602C220.769 32.1602 220.182 32.3536 219.715 32.7402C219.262 33.1136 218.942 33.5869 218.755 34.1602V41.0002H217.155V31.0002H218.275L218.575 32.2202H218.655C218.975 31.7936 219.402 31.4469 219.935 31.1802C220.482 30.9002 221.129 30.7602 221.875 30.7602C222.422 30.7602 222.902 30.8269 223.315 30.9602C223.729 31.0802 224.069 31.3002 224.335 31.6202C224.615 31.9402 224.822 32.3736 224.955 32.9202C225.102 33.4536 225.175 34.1336 225.175 34.9602V41.0002H223.575ZM235.773 37.5602C235.773 38.2402 235.779 38.8602 235.793 39.4202C235.806 39.9669 235.866 40.5069 235.973 41.0402H234.893L234.493 39.6202H234.413C234.146 40.0869 233.759 40.4736 233.253 40.7802C232.746 41.0869 232.153 41.2402 231.473 41.2402C230.139 41.2402 229.146 40.8202 228.493 39.9802C227.853 39.1402 227.533 37.8269 227.533 36.0402C227.533 34.3336 227.933 33.0402 228.733 32.1602C229.546 31.2669 230.659 30.8202 232.073 30.8202C232.566 30.8202 232.953 30.8469 233.233 30.9002C233.526 30.9536 233.839 31.0402 234.173 31.1602V27.0002H235.773V37.5602ZM231.733 39.8402C232.413 39.8402 232.953 39.6669 233.353 39.3202C233.753 38.9602 234.026 38.4202 234.173 37.7002V32.7402C233.933 32.5536 233.659 32.4202 233.353 32.3402C233.046 32.2602 232.639 32.2202 232.133 32.2202C231.213 32.2202 230.493 32.5269 229.973 33.1402C229.453 33.7402 229.193 34.7069 229.193 36.0402C229.193 36.5869 229.233 37.0936 229.313 37.5602C229.406 38.0269 229.553 38.4269 229.753 38.7602C229.953 39.0936 230.213 39.3602 230.533 39.5602C230.866 39.7469 231.266 39.8402 231.733 39.8402ZM238.294 36.0002C238.294 34.3069 238.668 33.0136 239.414 32.1202C240.174 31.2136 241.261 30.7602 242.674 30.7602C243.421 30.7602 244.068 30.8869 244.614 31.1402C245.174 31.3802 245.634 31.7336 245.994 32.2002C246.354 32.6536 246.621 33.2069 246.794 33.8602C246.968 34.5002 247.054 35.2136 247.054 36.0002C247.054 37.6936 246.674 38.9936 245.914 39.9002C245.168 40.7936 244.088 41.2402 242.674 41.2402C241.928 41.2402 241.274 41.1202 240.714 40.8802C240.168 40.6269 239.714 40.2736 239.354 39.8202C238.994 39.3536 238.728 38.8002 238.554 38.1602C238.381 37.5069 238.294 36.7869 238.294 36.0002ZM239.954 36.0002C239.954 36.5069 240.001 36.9936 240.094 37.4602C240.201 37.9269 240.361 38.3336 240.574 38.6802C240.788 39.0269 241.068 39.3069 241.414 39.5202C241.761 39.7336 242.181 39.8402 242.674 39.8402C244.488 39.8536 245.394 38.5736 245.394 36.0002C245.394 35.4802 245.341 34.9869 245.234 34.5202C245.141 34.0536 244.988 33.6469 244.774 33.3002C244.561 32.9536 244.281 32.6802 243.934 32.4802C243.588 32.2669 243.168 32.1602 242.674 32.1602C240.861 32.1469 239.954 33.4269 239.954 36.0002ZM84.8505 57.0002H85.9505L86.2505 58.2002H86.3305C86.6372 57.7336 87.0305 57.3802 87.5105 57.1402C88.0039 56.8869 88.5639 56.7602 89.1905 56.7602C90.5239 56.7602 91.5172 57.1536 92.1705 57.9402C92.8239 58.7269 93.1505 60.0136 93.1505 61.8002C93.1505 62.6402 93.0372 63.4002 92.8105 64.0802C92.5972 64.7469 92.2905 65.3136 91.8905 65.7802C91.4905 66.2469 91.0039 66.6069 90.4305 66.8602C89.8705 67.1136 89.2439 67.2402 88.5505 67.2402C88.0572 67.2402 87.6639 67.2069 87.3705 67.1402C87.0905 67.0869 86.7839 66.9869 86.4505 66.8402V71.0002H84.8505V57.0002ZM88.8905 58.1602C88.2105 58.1602 87.6705 58.3402 87.2705 58.7002C86.8839 59.0469 86.6105 59.5802 86.4505 60.3002V65.2602C86.6905 65.4469 86.9639 65.5936 87.2705 65.7002C87.5772 65.7936 87.9839 65.8402 88.4905 65.8402C89.4105 65.8402 90.1372 65.5002 90.6705 64.8202C91.2172 64.1269 91.4905 63.1136 91.4905 61.7802C91.4905 61.2336 91.4439 60.7402 91.3505 60.3002C91.2572 59.8469 91.1039 59.4669 90.8905 59.1602C90.6905 58.8402 90.4239 58.5936 90.0905 58.4202C89.7705 58.2469 89.3705 58.1602 88.8905 58.1602ZM95.5109 57.7402C96.0175 57.4336 96.6042 57.2069 97.2709 57.0602C97.9509 56.9136 98.6575 56.8402 99.3909 56.8402C100.084 56.8402 100.638 56.9336 101.051 57.1202C101.478 57.3069 101.798 57.5536 102.011 57.8602C102.238 58.1536 102.384 58.4802 102.451 58.8402C102.531 59.2002 102.571 59.5602 102.571 59.9202C102.571 60.7202 102.551 61.5002 102.511 62.2602C102.471 63.0202 102.451 63.7402 102.451 64.4202C102.451 64.9136 102.471 65.3802 102.511 65.8202C102.551 66.2602 102.624 66.6669 102.731 67.0402H101.551L101.131 65.6402H101.031C100.911 65.8269 100.758 66.0136 100.571 66.2002C100.398 66.3736 100.184 66.5336 99.9309 66.6802C99.6775 66.8136 99.3842 66.9269 99.0509 67.0202C98.7175 67.1136 98.3375 67.1602 97.9109 67.1602C97.4842 67.1602 97.0842 67.0936 96.7109 66.9602C96.3509 66.8269 96.0375 66.6402 95.7709 66.4002C95.5042 66.1469 95.2909 65.8469 95.1309 65.5002C94.9842 65.1536 94.9109 64.7602 94.9109 64.3202C94.9109 63.7336 95.0309 63.2469 95.2709 62.8602C95.5109 62.4602 95.8442 62.1469 96.2709 61.9202C96.7109 61.6802 97.2309 61.5136 97.8309 61.4202C98.4442 61.3136 99.1175 61.2602 99.8509 61.2602C100.038 61.2602 100.218 61.2602 100.391 61.2602C100.578 61.2602 100.764 61.2736 100.951 61.3002C100.991 60.9002 101.011 60.5402 101.011 60.2202C101.011 59.4869 100.864 58.9736 100.571 58.6802C100.278 58.3869 99.7442 58.2402 98.9709 58.2402C98.7442 58.2402 98.4975 58.2602 98.2309 58.3002C97.9775 58.3269 97.7109 58.3736 97.4309 58.4402C97.1642 58.4936 96.9042 58.5669 96.6509 58.6602C96.4109 58.7402 96.1975 58.8336 96.0109 58.9402L95.5109 57.7402ZM98.3509 65.7602C98.7242 65.7602 99.0575 65.7136 99.3509 65.6202C99.6442 65.5136 99.8975 65.3869 100.111 65.2402C100.324 65.0802 100.498 64.9069 100.631 64.7202C100.778 64.5336 100.884 64.3536 100.951 64.1802V62.5202C100.764 62.5069 100.571 62.5002 100.371 62.5002C100.184 62.4869 99.9975 62.4802 99.8109 62.4802C99.3975 62.4802 98.9909 62.5069 98.5909 62.5602C98.2042 62.6002 97.8575 62.6869 97.5509 62.8202C97.2575 62.9402 97.0175 63.1136 96.8309 63.3402C96.6575 63.5536 96.5709 63.8269 96.5709 64.1602C96.5709 64.6269 96.7375 65.0136 97.0709 65.3202C97.4042 65.6136 97.8309 65.7602 98.3509 65.7602ZM110.313 58.5402C109.913 58.4069 109.533 58.3402 109.173 58.3402C108.599 58.3402 108.146 58.5002 107.813 58.8202C107.479 59.1269 107.273 59.5202 107.193 60.0002V67.0002H105.593V57.0002H106.713L107.013 58.2202H107.093C107.346 57.7669 107.646 57.4202 107.993 57.1802C108.353 56.9269 108.806 56.8002 109.353 56.8002C109.739 56.8002 110.173 56.8669 110.653 57.0002L110.313 58.5402ZM112.23 57.7402C112.736 57.4336 113.323 57.2069 113.99 57.0602C114.67 56.9136 115.376 56.8402 116.11 56.8402C116.803 56.8402 117.356 56.9336 117.77 57.1202C118.196 57.3069 118.516 57.5536 118.73 57.8602C118.956 58.1536 119.103 58.4802 119.17 58.8402C119.25 59.2002 119.29 59.5602 119.29 59.9202C119.29 60.7202 119.27 61.5002 119.23 62.2602C119.19 63.0202 119.17 63.7402 119.17 64.4202C119.17 64.9136 119.19 65.3802 119.23 65.8202C119.27 66.2602 119.343 66.6669 119.45 67.0402H118.27L117.85 65.6402H117.75C117.63 65.8269 117.476 66.0136 117.29 66.2002C117.116 66.3736 116.903 66.5336 116.65 66.6802C116.396 66.8136 116.103 66.9269 115.77 67.0202C115.436 67.1136 115.056 67.1602 114.63 67.1602C114.203 67.1602 113.803 67.0936 113.43 66.9602C113.07 66.8269 112.756 66.6402 112.49 66.4002C112.223 66.1469 112.01 65.8469 111.85 65.5002C111.703 65.1536 111.63 64.7602 111.63 64.3202C111.63 63.7336 111.75 63.2469 111.99 62.8602C112.23 62.4602 112.563 62.1469 112.99 61.9202C113.43 61.6802 113.95 61.5136 114.55 61.4202C115.163 61.3136 115.836 61.2602 116.57 61.2602C116.756 61.2602 116.936 61.2602 117.11 61.2602C117.296 61.2602 117.483 61.2736 117.67 61.3002C117.71 60.9002 117.73 60.5402 117.73 60.2202C117.73 59.4869 117.583 58.9736 117.29 58.6802C116.996 58.3869 116.463 58.2402 115.69 58.2402C115.463 58.2402 115.216 58.2602 114.95 58.3002C114.696 58.3269 114.43 58.3736 114.15 58.4402C113.883 58.4936 113.623 58.5669 113.37 58.6602C113.13 58.7402 112.916 58.8336 112.73 58.9402L112.23 57.7402ZM115.07 65.7602C115.443 65.7602 115.776 65.7136 116.07 65.6202C116.363 65.5136 116.616 65.3869 116.83 65.2402C117.043 65.0802 117.216 64.9069 117.35 64.7202C117.496 64.5336 117.603 64.3536 117.67 64.1802V62.5202C117.483 62.5069 117.29 62.5002 117.09 62.5002C116.903 62.4869 116.716 62.4802 116.53 62.4802C116.116 62.4802 115.71 62.5069 115.31 62.5602C114.923 62.6002 114.576 62.6869 114.27 62.8202C113.976 62.9402 113.736 63.1136 113.55 63.3402C113.376 63.5536 113.29 63.8269 113.29 64.1602C113.29 64.6269 113.456 65.0136 113.79 65.3202C114.123 65.6136 114.55 65.7602 115.07 65.7602ZM127.304 53.0002H135.604V55.4402H130.044V58.7002H135.104V61.1402H130.044V64.5602H135.704V67.0002H127.304V53.0002ZM139.953 61.8802L136.953 57.0002H140.053L141.353 59.1402L141.913 60.5402L142.513 59.1402L143.873 57.0002H146.693L143.673 61.8002L146.893 67.0002H143.873L142.333 64.6002L141.733 63.1202L141.093 64.6002L139.553 67.0002H136.713L139.953 61.8802ZM148.201 57.0002H150.101L150.401 58.2002H150.481C150.827 57.6936 151.234 57.3202 151.701 57.0802C152.181 56.8402 152.761 56.7202 153.441 56.7202C154.694 56.7202 155.634 57.1202 156.261 57.9202C156.887 58.7069 157.201 59.9802 157.201 61.7402C157.201 62.5936 157.101 63.3669 156.901 64.0602C156.701 64.7402 156.401 65.3202 156.001 65.8002C155.614 66.2802 155.134 66.6469 154.561 66.9002C154.001 67.1536 153.354 67.2802 152.621 67.2802C152.207 67.2802 151.867 67.2469 151.601 67.1802C151.334 67.1269 151.067 67.0336 150.801 66.9002V71.0002H148.201V57.0002ZM152.661 58.9202C152.154 58.9202 151.754 59.0469 151.461 59.3002C151.181 59.5536 150.961 59.9336 150.801 60.4402V64.6002C150.987 64.7469 151.187 64.8669 151.401 64.9602C151.627 65.0402 151.921 65.0802 152.281 65.0802C153.027 65.0802 153.587 64.8202 153.961 64.3002C154.334 63.7669 154.521 62.8936 154.521 61.6802C154.521 60.8002 154.374 60.1202 154.081 59.6402C153.787 59.1602 153.314 58.9202 152.661 58.9202ZM167.001 66.1402C166.601 66.4602 166.055 66.7336 165.361 66.9602C164.681 67.1736 163.955 67.2802 163.181 67.2802C161.568 67.2802 160.388 66.8136 159.641 65.8802C158.895 64.9336 158.521 63.6402 158.521 62.0002C158.521 60.2402 158.941 58.9202 159.781 58.0402C160.621 57.1602 161.801 56.7202 163.321 56.7202C163.828 56.7202 164.321 56.7869 164.801 56.9202C165.281 57.0536 165.708 57.2736 166.081 57.5802C166.455 57.8869 166.755 58.3002 166.981 58.8202C167.208 59.3402 167.321 59.9869 167.321 60.7602C167.321 61.0402 167.301 61.3402 167.261 61.6602C167.235 61.9802 167.188 62.3136 167.121 62.6602H161.121C161.161 63.5002 161.375 64.1336 161.761 64.5602C162.161 64.9869 162.801 65.2002 163.681 65.2002C164.228 65.2002 164.715 65.1202 165.141 64.9602C165.581 64.7869 165.915 64.6136 166.141 64.4402L167.001 66.1402ZM163.281 58.8002C162.601 58.8002 162.095 59.0069 161.761 59.4202C161.441 59.8202 161.248 60.3602 161.181 61.0402H164.901C164.955 60.3202 164.841 59.7669 164.561 59.3802C164.295 58.9936 163.868 58.8002 163.281 58.8002ZM174.678 59.4402C174.264 59.2936 173.891 59.2202 173.558 59.2202C173.091 59.2202 172.698 59.3469 172.378 59.6002C172.071 59.8402 171.864 60.1536 171.758 60.5402V67.0002H169.158V57.0002H171.178L171.478 58.3202H171.558C171.784 57.8269 172.091 57.4469 172.478 57.1802C172.864 56.9136 173.318 56.7802 173.838 56.7802C174.184 56.7802 174.578 56.8536 175.018 57.0002L174.678 59.4402ZM175.735 57.0002H177.115V55.1202L179.715 54.3802V57.0002H182.155V59.2002H179.715V63.0402C179.715 63.7336 179.781 64.2336 179.915 64.5402C180.061 64.8336 180.328 64.9802 180.715 64.9802C180.981 64.9802 181.208 64.9536 181.395 64.9002C181.595 64.8469 181.815 64.7669 182.055 64.6602L182.515 66.6602C182.155 66.8336 181.735 66.9802 181.255 67.1002C180.775 67.2202 180.288 67.2802 179.795 67.2802C178.875 67.2802 178.195 67.0469 177.755 66.5802C177.328 66.1002 177.115 65.3202 177.115 64.2402V59.2002H175.735V57.0002ZM183.17 62.0002C183.17 60.3069 183.583 59.0069 184.41 58.1002C185.236 57.1802 186.396 56.7202 187.89 56.7202C188.69 56.7202 189.383 56.8469 189.97 57.1002C190.556 57.3536 191.043 57.7136 191.43 58.1802C191.816 58.6336 192.103 59.1869 192.29 59.8402C192.49 60.4936 192.59 61.2136 192.59 62.0002C192.59 63.6936 192.176 65.0002 191.35 65.9202C190.536 66.8269 189.383 67.2802 187.89 67.2802C187.09 67.2802 186.396 67.1536 185.81 66.9002C185.223 66.6469 184.73 66.2936 184.33 65.8402C183.943 65.3736 183.65 64.8136 183.45 64.1602C183.263 63.5069 183.17 62.7869 183.17 62.0002ZM185.85 62.0002C185.85 62.4402 185.89 62.8469 185.97 63.2202C186.05 63.5936 186.17 63.9202 186.33 64.2002C186.49 64.4802 186.696 64.7002 186.95 64.8602C187.216 65.0069 187.53 65.0802 187.89 65.0802C188.57 65.0802 189.076 64.8336 189.41 64.3402C189.743 63.8469 189.91 63.0669 189.91 62.0002C189.91 61.0802 189.756 60.3402 189.45 59.7802C189.143 59.2069 188.623 58.9202 187.89 58.9202C187.25 58.9202 186.75 59.1602 186.39 59.6402C186.03 60.1202 185.85 60.9069 185.85 62.0002ZM198.532 64.2402C198.532 63.9736 198.419 63.7602 198.192 63.6002C197.965 63.4402 197.685 63.2936 197.352 63.1602C197.019 63.0269 196.652 62.8936 196.252 62.7602C195.852 62.6136 195.485 62.4202 195.152 62.1802C194.819 61.9269 194.539 61.6136 194.312 61.2402C194.085 60.8536 193.972 60.3602 193.972 59.7602C193.972 58.7736 194.265 58.0202 194.852 57.5002C195.439 56.9802 196.285 56.7202 197.392 56.7202C198.152 56.7202 198.839 56.8002 199.452 56.9602C200.065 57.1202 200.545 57.3002 200.892 57.5002L200.312 59.3802C200.005 59.2602 199.619 59.1336 199.152 59.0002C198.685 58.8669 198.212 58.8002 197.732 58.8002C196.959 58.8002 196.572 59.1002 196.572 59.7002C196.572 59.9402 196.685 60.1336 196.912 60.2802C197.139 60.4269 197.419 60.5669 197.752 60.7002C198.085 60.8202 198.452 60.9536 198.852 61.1002C199.252 61.2469 199.619 61.4402 199.952 61.6802C200.285 61.9069 200.565 62.2069 200.792 62.5802C201.019 62.9536 201.132 63.4336 201.132 64.0202C201.132 65.0336 200.805 65.8336 200.152 66.4202C199.512 66.9936 198.545 67.2802 197.252 67.2802C196.545 67.2802 195.879 67.1869 195.252 67.0002C194.639 66.8269 194.139 66.6202 193.752 66.3802L194.472 64.4402C194.779 64.6136 195.185 64.7869 195.692 64.9602C196.199 65.1202 196.719 65.2002 197.252 65.2002C197.639 65.2002 197.945 65.1269 198.172 64.9802C198.412 64.8336 198.532 64.5869 198.532 64.2402Z" fill="#373737"/>
<path d="M30.1 34C30.1 35.5333 29.6 36.7667 28.6 37.7C27.6 38.5667 26.3333 39 24.8 39C23 39 21.5 38.4 20.3 37.2C19.1667 36 18.6 34.2333 18.6 31.9C18.6 29.7 18.9 27.8333 19.5 26.3C20.1667 24.7 20.9333 23.3667 21.8 22.3C22.7333 21.1667 23.6667 20.2667 24.6 19.6C25.6 18.9333 26.4667 18.4667 27.2 18.2L29.7 21.7C28.2333 22.4333 27.0333 23.4333 26.1 24.7C25.2333 25.9 24.8 27.4333 24.8 29.3C25.0667 29.2333 25.4333 29.2 25.9 29.2C27.2333 29.2 28.2667 29.6667 29 30.6C29.7333 31.5333 30.1 32.6667 30.1 34ZM15.5 34C15.5 35.5333 15 36.7667 14 37.7C13 38.5667 11.7333 39 10.2 39C8.4 39 6.9 38.4 5.7 37.2C4.56667 36 4 34.2333 4 31.9C4 29.7 4.3 27.8333 4.9 26.3C5.56667 24.7 6.33333 23.3667 7.2 22.3C8.13333 21.1667 9.06667 20.2667 10 19.6C11 18.9333 11.8667 18.4667 12.6 18.2L15.1 21.7C13.6333 22.4333 12.4333 23.4333 11.5 24.7C10.6333 25.9 10.2 27.4333 10.2 29.3C10.4667 29.2333 10.8333 29.2 11.3 29.2C12.6333 29.2 13.6667 29.6667 14.4 30.6C15.1333 31.5333 15.5 32.6667 15.5 34Z" fill="white"/>
<path d="M248.9 52C248.9 50.4667 249.4 49.2333 250.4 48.3C251.4 47.4333 252.667 47 254.2 47C256 47 257.5 47.6 258.7 48.8C259.833 50 260.4 51.7667 260.4 54.1C260.4 56.3 260.1 58.1667 259.5 59.7C258.833 61.3 258.067 62.6333 257.2 63.7C256.267 64.8333 255.333 65.7333 254.4 66.4C253.4 67.0667 252.533 67.5333 251.8 67.8L249.3 64.3C250.767 63.5667 251.967 62.5667 252.9 61.3C253.767 60.1 254.2 58.5667 254.2 56.7C253.933 56.7667 253.567 56.8 253.1 56.8C251.767 56.8 250.733 56.3333 250 55.4C249.267 54.4667 248.9 53.3333 248.9 52ZM263.5 52C263.5 50.4667 264 49.2333 265 48.3C266 47.4333 267.267 47 268.8 47C270.6 47 272.1 47.6 273.3 48.8C274.433 50 275 51.7667 275 54.1C275 56.3 274.7 58.1667 274.1 59.7C273.433 61.3 272.667 62.6333 271.8 63.7C270.867 64.8333 269.933 65.7333 269 66.4C268 67.0667 267.133 67.5333 266.4 67.8L263.9 64.3C265.367 63.5667 266.567 62.5667 267.5 61.3C268.367 60.1 268.8 58.5667 268.8 56.7C268.533 56.7667 268.167 56.8 267.7 56.8C266.367 56.8 265.333 56.3333 264.6 55.4C263.867 54.4667 263.5 53.3333 263.5 52Z" fill="white"/>
</svg>
