<svg width="170" height="43" viewBox="0 0 170 43" fill="none" xmlns="http://www.w3.org/2000/svg">
<path d="M56.6536 14.8347C56.6536 15.6593 56.5304 16.3331 56.2788 16.8363C56.0397 17.3354 55.7092 17.7249 55.3163 18.0126C54.9059 18.3002 54.4337 18.5018 53.9138 18.6105C53.3647 18.7273 52.8027 18.7894 52.2502 18.7894C51.8239 18.7894 51.504 18.7784 51.2801 18.761C51.1486 18.7515 51.0148 18.7405 50.8598 18.7235V11.1646C51.8239 11.0964 53.11 11.0729 54.1241 11.3082C54.6493 11.428 55.104 11.6303 55.4731 11.9138C55.8328 12.1946 56.1215 12.5746 56.3322 13.0392C56.5422 13.5148 56.6536 14.123 56.6536 14.8347ZM57.9977 9.2634C57.2466 8.71961 56.3591 8.32929 55.3727 8.11784C54.0335 7.81581 52.6276 7.7548 51.0459 7.81582C50.6131 7.83325 50.1872 7.86773 49.7533 7.89843C49.3221 7.91927 48.9082 7.95716 48.5149 7.98748C48.1231 8.02841 47.7778 8.06971 47.4921 8.10041L47.1348 8.15838V29.3746L47.4751 29.4333C47.7229 29.4742 47.9847 29.4947 48.2568 29.5045C48.5198 29.522 48.7695 29.522 48.9988 29.522C49.5202 29.522 50.0318 29.4947 50.4983 29.4333L50.8598 29.392V22.0692C51.0235 22.0862 51.1842 22.0965 51.3316 22.0995C51.6136 22.1097 51.9349 22.1169 52.3029 22.1169C53.3003 22.1169 54.2935 22.0006 55.2446 21.7782C56.2276 21.5493 57.1151 21.1449 57.8882 20.5845C58.6646 20.0134 59.3024 19.254 59.7761 18.3097C60.2517 17.3801 60.4931 16.2031 60.4931 14.804C60.4931 13.4773 60.2657 12.345 59.8204 11.4522C59.3778 10.5526 58.7586 9.81439 57.9977 9.2634Z" fill="white"/>
<path d="M72.5304 19.6811C73.0435 19.309 73.504 18.8675 73.9056 18.3714C74.3096 17.8652 74.648 17.2907 74.9061 16.6442C75.1694 15.9875 75.3047 15.2595 75.3047 14.4656C75.3047 13.1692 75.0531 12.0612 74.5555 11.1991C74.0614 10.3411 73.4062 9.64691 72.6127 9.13646C71.8328 8.63739 70.9317 8.28838 69.9346 8.08337C68.963 7.88821 67.9645 7.79233 66.9796 7.79233C66.5347 7.79233 66.1277 7.79953 65.7586 7.81583C65.3956 7.83326 65.0417 7.86774 64.7052 7.89806C64.3683 7.91928 64.0329 7.95718 63.6839 7.99052C63.3455 8.02842 62.9639 8.06972 62.5501 8.10042L62.1753 8.13415V29.3746L62.5228 29.4333C62.7638 29.4742 63.0306 29.4943 63.3144 29.5046C63.8635 29.525 64.3016 29.5353 64.8283 29.4943C65.086 29.4742 65.3206 29.4568 65.5313 29.4333L65.9053 29.3988V11.1411C66.1001 11.1108 66.2801 11.0994 66.4495 11.0896C66.7193 11.0619 67.0084 11.0517 67.3195 11.0517C68.5852 11.0517 69.5943 11.3567 70.3196 11.9585C71.0374 12.5534 71.383 13.4459 71.383 14.6983C71.383 15.3584 71.2413 15.9193 70.9608 16.374C70.6668 16.8526 70.2886 17.2664 69.8494 17.606C69.3977 17.9508 68.8982 18.2343 68.3628 18.4506C67.8125 18.6655 67.2805 18.8474 66.7928 18.9732L66.2547 19.1104V19.6678L72.989 29.4121L73.1701 29.4333C73.7037 29.4943 74.2323 29.522 74.7594 29.522C75.4074 29.522 76.0122 29.4943 76.5393 29.4333L77.2165 29.3583L71.1458 20.547C71.5971 20.3113 72.0658 20.0274 72.5304 19.6811Z" fill="white"/>
<path d="M85.8683 26.4467C84.9914 26.4467 84.2282 26.28 83.5991 25.9477C82.961 25.6089 82.4361 25.1129 82.0257 24.4774C81.5949 23.8168 81.2678 23.0093 81.0511 22.065C80.8301 21.1146 80.7225 20.0133 80.7225 18.7988C80.7225 17.5987 80.8301 16.5009 81.0511 15.5395C81.2678 14.5989 81.5949 13.7887 82.0257 13.1388C82.4361 12.5056 82.961 12.0134 83.5991 11.678C84.2282 11.3426 84.9914 11.1717 85.8683 11.1717C86.7459 11.1717 87.5136 11.3426 88.1408 11.678C88.7687 12.0134 89.2955 12.5056 89.7112 13.1388C90.1439 13.7887 90.4619 14.5989 90.6824 15.5395C90.8996 16.5009 91.0144 17.5987 91.0144 18.7988C91.0144 20.0133 90.8996 21.1146 90.6824 22.065C90.4668 23.0093 90.1439 23.8168 89.7112 24.4774C89.2955 25.1129 88.7687 25.6089 88.1408 25.9477C87.5068 26.28 86.7459 26.4467 85.8683 26.4467ZM92.7348 10.9565C91.9841 9.97122 91.0333 9.19134 89.8957 8.6305C88.7642 8.07307 87.4041 7.79264 85.8683 7.79264C84.329 7.79264 82.9799 8.07307 81.8408 8.6305C80.707 9.19134 79.749 9.97842 79.0025 10.9565C78.2616 11.9414 77.7042 13.1116 77.3362 14.4455C76.9755 15.7619 76.8008 17.233 76.8008 18.7988C76.8008 20.3661 76.9755 21.8331 77.3362 23.1499C77.7042 24.4906 78.2616 25.6608 79.0025 26.6389C79.7547 27.6272 80.707 28.4067 81.8465 28.9611C82.9799 29.5018 84.329 29.7815 85.8683 29.7815C87.4022 29.7815 88.757 29.5018 89.8957 28.9611C91.0246 28.4067 91.9841 27.6272 92.7348 26.6389C93.4753 25.6608 94.0312 24.4906 94.3832 23.1499C94.7341 21.8331 94.9065 20.3661 94.9065 18.7988C94.9065 17.233 94.7341 15.7691 94.3832 14.4455C94.0312 13.1116 93.4753 11.9414 92.7348 10.9565Z" fill="white"/>
<path d="M109.631 8.04869C109.077 8.00473 108.516 8.01117 108.002 8.04869C107.747 8.06991 107.49 8.09644 107.233 8.13395L107.016 8.17147L102.565 17.7452L98.0572 8.17867L97.8431 8.13395C97.6051 8.09644 97.3296 8.06991 97.0204 8.04869C96.3675 8.00473 95.854 8.01117 95.3 8.04869C95.0044 8.06991 94.7289 8.09644 94.4689 8.13395L93.9111 8.22035L100.617 21.6347V29.3676L100.955 29.4331C101.174 29.474 101.426 29.5013 101.694 29.5218C101.961 29.5388 102.221 29.5491 102.483 29.5491C102.739 29.5491 102.992 29.5388 103.252 29.5218C103.51 29.5013 103.767 29.474 104.022 29.4331L104.367 29.3785V21.6347L110.984 8.22035L110.433 8.13395C110.175 8.09644 109.908 8.06991 109.631 8.04869Z" fill="white"/>
<path d="M124.089 26.0845H115.569V19.8902H122.158L122.229 19.5681C122.266 19.3597 122.298 19.1338 122.32 18.8879C122.337 18.648 122.348 18.4225 122.348 18.2005C122.348 17.9848 122.337 17.7594 122.32 17.5305C122.298 17.2906 122.266 17.0682 122.229 16.8628L122.158 16.535H115.569V11.4828H123.843L123.907 11.1573C123.949 10.9489 123.976 10.717 123.983 10.4669C123.998 10.2312 123.998 10.0118 123.998 9.79691C123.998 9.32133 123.969 8.87303 123.907 8.47968L123.856 8.12764H111.848V29.4363H124.071L124.133 29.1039C124.179 28.8989 124.203 28.67 124.215 28.4207C124.224 28.1808 124.231 27.9553 124.231 27.7435C124.231 27.271 124.202 26.8299 124.138 26.4331L124.089 26.0845Z" fill="white"/>
<path d="M139.826 25.8517L139.652 25.5061L139.296 25.6603C138.759 25.8964 138.174 26.0775 137.557 26.2075C136.944 26.3337 136.238 26.3955 135.472 26.3955C134.506 26.3955 133.62 26.2485 132.845 25.9411C132.077 25.6395 131.419 25.1847 130.875 24.5898C130.326 23.9914 129.895 23.2176 129.592 22.2945C129.288 21.3502 129.132 20.2084 129.132 18.9113C129.132 16.3768 129.678 14.4279 130.762 13.1012C131.839 11.7908 133.313 11.144 135.27 11.144C135.735 11.144 136.15 11.1576 136.515 11.1856C136.866 11.2091 137.184 11.2538 137.478 11.308C137.768 11.3565 138.044 11.4278 138.292 11.4968C138.56 11.5722 138.831 11.6605 139.108 11.7499L139.467 11.8659L139.609 11.5172C139.787 11.0894 139.937 10.6896 140.062 10.3065C140.196 9.90593 140.288 9.47469 140.325 8.99986L140.353 8.68496L140.05 8.58226C139.426 8.37081 138.707 8.17868 137.917 8.02521C137.117 7.86757 136.153 7.79216 135.043 7.79216C133.534 7.79216 132.151 8.05249 130.926 8.57923C129.696 9.10559 128.64 9.86842 127.785 10.84C126.938 11.8007 126.278 12.9883 125.823 14.3555C125.375 15.7107 125.149 17.239 125.149 18.9113C125.149 20.5635 125.375 22.0721 125.827 23.4025C126.282 24.7364 126.94 25.8964 127.791 26.84C128.64 27.7813 129.707 28.513 130.945 29.0186C132.177 29.5218 133.575 29.781 135.104 29.781C136.087 29.781 137.028 29.7029 137.883 29.5423C138.748 29.3884 139.602 29.1315 140.421 28.7829L140.712 28.6567L140.667 28.3383C140.539 27.538 140.26 26.7066 139.826 25.8517Z" fill="white"/>
<path d="M155.024 11.1575C155.06 10.9529 155.091 10.7202 155.113 10.4671C155.132 10.217 155.141 9.9915 155.141 9.76943C155.141 9.55002 155.132 9.32152 155.113 9.10248C155.091 8.87322 155.06 8.66063 155.024 8.456L154.957 8.12783H140.725L140.657 8.456C140.616 8.66063 140.585 8.87701 140.565 9.11992C140.539 9.35486 140.537 9.57768 140.537 9.7971C140.537 10.0188 140.539 10.2515 140.565 10.4841C140.585 10.7274 140.616 10.9529 140.657 11.1575L140.725 11.4827H145.979V29.3917L146.335 29.4334C146.804 29.4944 147.323 29.5217 147.867 29.5217C148.394 29.5217 148.89 29.4944 149.347 29.4334L149.704 29.3887V11.4827H154.957L155.024 11.1575Z" fill="white"/>
<path d="M163.134 8.17879L162.882 8.13407C162.605 8.09656 162.326 8.06965 162.024 8.04881C161.395 8.00485 160.813 8.01092 160.262 8.04881C159.965 8.06965 159.693 8.09656 159.43 8.13407L159.178 8.17879L152.29 29.3438L152.757 29.4332C152.974 29.4742 153.223 29.5014 153.493 29.5219C154.007 29.5594 154.547 29.5594 155.074 29.5219C155.334 29.5014 155.595 29.4742 155.85 29.4332L156.11 29.3919L161.063 12.7341L166.07 29.3919L166.322 29.4332C166.563 29.4742 166.814 29.5014 167.086 29.5219C167.349 29.539 167.611 29.5492 167.867 29.5492C168.144 29.5492 168.427 29.539 168.725 29.5219C169.022 29.5014 169.292 29.4742 169.535 29.4332L170 29.354L163.134 8.17879Z" fill="white"/>
<path d="M31.633 -8.45492e-05V0.322021H31.3325L31.633 -8.45492e-05Z" fill="white"/>
<path d="M17.1801 0.322221L14.238 6.39941L5.88444 1.07368L5.7124 0.322221H17.1801Z" fill="white"/>
<path d="M30.8812 0.32227L21.3893 10.9521L14.5171 6.57151L17.5669 0.32227H30.8812Z" fill="white"/>
<path d="M31.6544 17.4807L21.6899 11.1455L31.3323 0.322313H31.6328L31.6544 17.4807Z" fill="white"/>
<path d="M10.0077 36.2715H5.66988L5.32617 25.4912L6.39973 23.2789L10.0077 36.2715Z" fill="white"/>
<path d="M5.32577 36.2715H0.0644531L5.00366 26.1566L5.32577 36.2715Z" fill="white"/>
<path d="M4.96081 25.4266L0 35.6487V0.322365H0.0215998L4.70313 17.2231L4.96081 25.4266Z" fill="white"/>
<path d="M4.25214 2.94214L2.14746 0.32209H4.08048L4.18772 0.386512L4.25214 2.94214Z" fill="white"/>
<path d="M4.66012 15.7842L0.386719 0.322333H1.69674L4.27359 3.52217L4.66012 15.7842Z" fill="white"/>
<path d="M5.47644 0.815918L4.72461 0.322148H5.36882L5.47644 0.815918Z" fill="white"/>
<path d="M9.01969 17.0942L6.48567 22.3127L5.0468 17.1803L4.63867 3.95156L6.72175 6.52841L9.01969 17.0942Z" fill="white"/>
<path d="M10.3511 23.1287V36.2285L6.61426 22.8281L9.14828 17.6313L10.3511 23.1287Z" fill="white"/>
<path d="M6.24943 22.785L5.30471 24.7605L5.08984 18.6189L6.24943 22.785Z" fill="white"/>
<path d="M15.5696 17.4808L10.6732 22.9998L9.38477 17.137L11.5967 12.5844L15.5696 17.4808Z" fill="white"/>
<path d="M35.9494 0.322315V36.2712H10.6948V23.4723L10.7808 23.365L20.4876 23.4723H20.5304L31.9982 17.9101L31.9766 0.322315H35.9494Z" fill="white"/>
<path d="M6.54991 5.77686L4.61727 3.39327L4.53125 0.622781L5.56199 1.28859L6.54991 5.77686Z" fill="white"/>
<path d="M20.1436 23.1287L11.0811 23.0214L15.7842 17.7601L20.1436 23.1287Z" fill="white"/>
<path d="M21.1744 11.21L15.8059 17.2231L11.7686 12.2407L14.3666 6.89377L21.1744 11.21Z" fill="white"/>
<path d="M11.3605 12.2837L9.25581 16.6003L7.19434 7.12967L11.3605 12.2837Z" fill="white"/>
<path d="M31.4611 17.7814L20.552 23.0859L16.0205 17.5025L21.4539 11.4033L31.4611 17.7814Z" fill="white"/>
<path d="M14.0877 6.70047L11.532 11.9402L7.04378 6.37836L5.97021 1.54639L14.0877 6.70047Z" fill="white"/>
<path d="M103.666 41.4416C104.183 41.4416 104.591 41.3352 104.888 41.121C105.186 40.9073 105.335 40.6087 105.335 40.226V40.2066C105.335 39.8375 105.183 39.5507 104.878 39.3461C104.575 39.1422 104.125 39.0395 103.53 39.0395H101.387V41.4416H103.666ZM103.394 38.349C103.86 38.349 104.236 38.2482 104.524 38.0444C104.811 37.8412 104.955 37.5396 104.955 37.1391V37.1194C104.955 36.784 104.826 36.5161 104.567 36.3164C104.309 36.1155 103.937 36.0162 103.452 36.0162H101.387V38.349H103.394ZM100.619 35.3258H103.511C103.899 35.3258 104.243 35.3788 104.544 35.4857C104.845 35.5922 105.093 35.7396 105.287 35.9276C105.578 36.2315 105.724 36.5938 105.724 37.0144V37.0333C105.724 37.2535 105.693 37.4494 105.631 37.6211C105.57 37.7927 105.487 37.9417 105.384 38.0671C105.28 38.1933 105.166 38.3005 105.039 38.3877C104.914 38.4752 104.783 38.5476 104.647 38.6063C104.848 38.6643 105.036 38.7413 105.215 38.8352C105.393 38.9292 105.546 39.0414 105.676 39.1714C105.805 39.3006 105.909 39.4548 105.986 39.6337C106.064 39.8122 106.103 40.0183 106.103 40.2521V40.2714C106.103 40.564 106.045 40.8258 105.928 41.0559C105.811 41.2866 105.645 41.481 105.428 41.6398C105.212 41.799 104.951 41.9214 104.647 42.0059C104.343 42.0896 104.006 42.1321 103.638 42.1321H100.619V35.3258Z" fill="white"/>
<path d="M109.085 39.4385L106.256 35.3258H107.189L109.479 38.7284L111.789 35.3258H112.684L109.854 39.429V42.1321H109.085V39.4385Z" fill="white"/>
<path d="M119.169 42.2488C118.676 42.2488 118.223 42.1578 117.808 41.9759C117.393 41.7948 117.033 41.5473 116.729 41.2324C116.424 40.9183 116.186 40.5473 116.014 40.1195C115.842 39.6916 115.756 39.2346 115.756 38.7481V38.7284C115.756 38.249 115.842 37.795 116.014 37.3672C116.186 36.9393 116.424 36.5653 116.729 36.244C117.033 35.9238 117.396 35.6706 117.818 35.4857C118.239 35.3015 118.699 35.2087 119.199 35.2087C119.51 35.2087 119.79 35.2348 120.04 35.2864C120.289 35.3383 120.521 35.411 120.735 35.505C120.949 35.599 121.146 35.7127 121.328 35.8453C121.509 35.9783 121.684 36.1257 121.853 36.2879L121.328 36.8522C121.036 36.5797 120.723 36.3561 120.39 36.1814C120.056 36.006 119.655 35.9188 119.189 35.9188C118.813 35.9188 118.464 35.9901 118.144 36.1329C117.823 36.2754 117.544 36.4729 117.307 36.7252C117.07 36.9784 116.886 37.2747 116.753 37.6154C116.62 37.9557 116.554 38.3202 116.554 38.7098V38.7284C116.554 39.1244 116.62 39.4919 116.753 39.8326C116.886 40.1729 117.07 40.4689 117.307 40.722C117.544 40.9744 117.823 41.1745 118.144 41.32C118.464 41.4659 118.813 41.5386 119.189 41.5386C119.655 41.5386 120.057 41.4534 120.394 41.2809C120.731 41.1093 121.062 40.8679 121.386 40.5568L121.892 41.0528C121.717 41.234 121.534 41.3977 121.343 41.5436C121.151 41.6891 120.945 41.8145 120.725 41.918C120.504 42.0214 120.268 42.1029 120.015 42.1609C119.762 42.22 119.481 42.2488 119.169 42.2488Z" fill="white"/>
<path d="M127.335 39.6431L125.789 36.1716L124.234 39.6431H127.335ZM125.439 35.2773H126.159L129.26 42.1321H128.434L127.637 40.3336H123.932L123.125 42.1321H122.337L125.439 35.2773Z" fill="white"/>
<path d="M132.574 42.2292C132.03 42.2292 131.532 42.1398 131.081 41.9621C130.631 41.7832 130.201 41.51 129.793 41.1398L130.27 40.5763C130.626 40.9003 130.986 41.1424 131.349 41.3004C131.712 41.4596 132.13 41.5388 132.604 41.5388C133.064 41.5388 133.431 41.4308 133.707 41.2129C133.982 40.9958 134.12 40.7191 134.12 40.3819V40.3625C134.12 40.2064 134.094 40.0655 134.042 39.9393C133.99 39.8131 133.899 39.6979 133.769 39.5944C133.639 39.4902 133.459 39.3962 133.229 39.3125C132.998 39.2276 132.704 39.1469 132.346 39.0696C131.956 38.9847 131.617 38.8877 131.328 38.777C131.039 38.6675 130.799 38.5341 130.611 38.3791C130.423 38.223 130.283 38.0419 130.192 37.8342C130.101 37.6265 130.056 37.3836 130.056 37.1047V37.085C130.056 36.8194 130.111 36.5734 130.221 36.3461C130.331 36.1195 130.487 35.9235 130.688 35.7583C130.889 35.5931 131.125 35.4635 131.398 35.3695C131.67 35.2755 131.968 35.2286 132.293 35.2286C132.791 35.2286 133.227 35.2983 133.6 35.437C133.972 35.5764 134.334 35.7856 134.684 36.0649L134.237 36.658C133.919 36.3988 133.6 36.2104 133.279 36.0937C132.958 35.977 132.623 35.919 132.273 35.919C131.825 35.919 131.472 36.024 131.213 36.2347C130.953 36.4457 130.824 36.7065 130.824 37.0176V37.0365C130.824 37.1987 130.849 37.3431 130.902 37.47C130.953 37.5962 131.047 37.7129 131.184 37.8194C131.32 37.9267 131.508 38.0241 131.748 38.1108C131.987 38.1988 132.296 38.2817 132.671 38.3594C133.43 38.5277 133.989 38.7615 134.349 39.0593C134.708 39.358 134.888 39.7661 134.888 40.2849V40.3038C134.888 40.596 134.831 40.8601 134.716 41.097C134.6 41.3334 134.441 41.5358 134.239 41.7044C134.037 41.8727 133.793 42.0026 133.507 42.0928C133.222 42.1838 132.911 42.2292 132.574 42.2292Z" fill="white"/>
<path d="M138.445 42.2292C137.901 42.2292 137.403 42.1398 136.952 41.9621C136.502 41.7832 136.073 41.51 135.664 41.1398L136.141 40.5763C136.497 40.9003 136.857 41.1424 137.22 41.3004C137.583 41.4596 138.001 41.5388 138.475 41.5388C138.935 41.5388 139.302 41.4308 139.578 41.2129C139.853 40.9958 139.991 40.7191 139.991 40.3819V40.3625C139.991 40.2064 139.965 40.0655 139.914 39.9393C139.861 39.8131 139.77 39.6979 139.64 39.5944C139.51 39.4902 139.33 39.3962 139.1 39.3125C138.869 39.2276 138.575 39.1469 138.217 39.0696C137.827 38.9847 137.488 38.8877 137.199 38.777C136.91 38.6675 136.671 38.5341 136.482 38.3791C136.294 38.223 136.154 38.0419 136.063 37.8342C135.972 37.6265 135.927 37.3836 135.927 37.1047V37.085C135.927 36.8194 135.982 36.5734 136.092 36.3461C136.202 36.1195 136.358 35.9235 136.559 35.7583C136.76 35.5931 136.996 35.4635 137.269 35.3695C137.541 35.2755 137.839 35.2286 138.164 35.2286C138.662 35.2286 139.098 35.2983 139.471 35.437C139.843 35.5764 140.205 35.7856 140.555 36.0649L140.108 36.658C139.79 36.3988 139.471 36.2104 139.15 36.0937C138.829 35.977 138.494 35.919 138.144 35.919C137.696 35.919 137.343 36.024 137.084 36.2347C136.824 36.4457 136.695 36.7065 136.695 37.0176V37.0365C136.695 37.1987 136.721 37.3431 136.773 37.47C136.824 37.5962 136.918 37.7129 137.055 37.8194C137.191 37.9267 137.379 38.0241 137.619 38.1108C137.859 38.1988 138.167 38.2817 138.542 38.3594C139.301 38.5277 139.86 38.7615 140.22 39.0593C140.579 39.358 140.759 39.7661 140.759 40.2849V40.3038C140.759 40.596 140.702 40.8601 140.587 41.097C140.471 41.3334 140.312 41.5358 140.11 41.7044C139.908 41.8727 139.664 42.0026 139.379 42.0928C139.093 42.1838 138.782 42.2292 138.445 42.2292Z" fill="white"/>
<path d="M142.052 35.3258H142.82V42.1321H142.052V35.3258Z" fill="white"/>
<path d="M144.489 35.3258H145.208L149.497 40.7804V35.3258H150.245V42.1321H149.633L145.237 36.5506V42.1321H144.489V35.3258Z" fill="white"/>
<path d="M151.888 35.3258H156.808V36.0162H152.656V38.3593H156.37V39.0497H152.656V41.4416H156.856V42.1321H151.888V35.3258Z" fill="white"/>
<path d="M157.949 35.3258H158.717V41.4219H162.548V42.1321H157.949V35.3258Z" fill="white"/>
<path d="M163.524 35.3258H164.292V41.4219H168.123V42.1321H163.524V35.3258Z" fill="white"/>
<path d="M169.132 35.3258H169.9V42.1321H169.132V35.3258Z" fill="white"/>
</svg>
