<?xml version="1.0" encoding="UTF-8"?>
<svg id="Capa_1" data-name="Capa 1" xmlns="http://www.w3.org/2000/svg" viewBox="0 0 48 48">
  <defs>
    <style>
      .cls-1 {
        fill: #fff;
      }
    </style>
  </defs>
  <path class="cls-1" d="m36.02,19.62c-1.97-6.28-8.23-9.91-14.69-8.51-5.31,1.16-9.52,5.8-9.78,11.68-.12,2.37.43,4.6,1.59,6.69.2.35.52.69.56,1.07.04.38-.19.78-.3,1.19-.3,1.1-.61,2.2-.91,3.34.14-.04.26-.06.36-.09,1.33-.35,2.68-.69,4.01-1.06.26-.07.46-.03.71.1,2.91,1.72,6.01,2.24,9.3,1.49,7.06-1.58,11.33-9.02,9.15-15.9Zm-5.64,10.26c-1.24.8-2.55.85-3.92.46-3.56-1-6.19-3.24-8.32-6.18-.69-.96-1.33-1.95-1.61-3.13-.07-.36-.12-.74-.16-1.1.01-1.27.51-2.32,1.42-3.18.27-.27.61-.41,1-.41.22,0,.45.03.67.01.41-.03.64.17.78.52.43,1.01.87,2.03,1.27,3.05.06.19.01.46-.09.62-.27.45-.61.87-.94,1.27-.2.26-.22.49-.04.78,1.23,2.05,2.92,3.55,5.17,4.43.33.14.54.1.77-.2.38-.45.75-.91,1.11-1.37.26-.33.42-.42.8-.25,1.07.49,2.13,1.01,3.18,1.53.12.06.23.26.23.41.04,1.14-.3,2.07-1.32,2.72Z"/>
  <path class="cls-1" d="m23.99,0C10.74,0,0,10.74,0,24s10.74,24.01,23.99,24.01,24.01-10.75,24.01-24.01S37.25,0,23.99,0Zm11.52,33.11c-2.27,2.71-5.18,4.38-8.65,5.05-3.37.64-6.61.14-9.68-1.4-.25-.13-.45-.14-.71-.07-2.43.65-4.86,1.29-7.29,1.92-.1.03-.19.03-.33.06.19-.64.35-1.24.51-1.85.52-1.88,1.04-3.78,1.56-5.66.06-.22.03-.38-.07-.56-1.46-2.65-2.07-5.48-1.82-8.48.54-6.37,4.85-11.63,11.06-13.31,5.11-1.39,9.78-.32,13.82,3.11,2.69,2.27,4.37,5.17,4.98,8.62.84,4.7-.27,8.93-3.36,12.58Z"/>
</svg>